# OBJ
# COMPAS
# version: 2.15.1
# precision: 3
# V F E: 416 388 754

o Mesh 0
v -10.812 57.382 113.381
v -5.910 52.653 112.114
v -1.008 47.924 110.847
v -6.174 59.749 114.596
v -2.294 56.005 113.593
v 1.587 52.261 112.590
v -1.537 62.116 115.811
v 1.323 59.357 115.072
v 4.182 56.598 114.333
v -1.008 47.924 110.847
v 3.894 49.196 106.119
v 8.796 50.469 101.392
v 1.587 52.261 112.590
v 5.468 53.268 108.847
v 9.349 54.276 105.104
v 4.182 56.598 114.333
v 7.042 57.341 111.575
v 9.901 58.083 108.817
v 8.796 50.469 101.392
v 8.796 62.472 94.470
v 9.901 58.083 108.817
v 9.901 65.085 104.779
v 8.796 62.472 94.470
v -1.008 71.931 97.003
v 9.901 65.085 104.779
v 4.182 70.603 106.257
v -1.008 71.931 97.003
v -10.812 69.386 106.459
v 1.587 71.267 101.630
v -6.174 69.252 109.116
v 4.182 70.603 106.257
v -1.537 69.118 111.773
v -10.812 69.386 106.459
v -10.812 57.382 113.381
v -6.174 69.252 109.116
v -6.174 59.749 114.596
v -1.537 69.118 111.773
v -1.537 62.116 115.811
v -1.537 62.116 115.811
v 4.182 56.598 114.333
v 9.901 58.083 108.817
v 9.901 65.085 104.779
v 4.182 70.603 106.257
v -1.537 69.118 111.773
v -1.008 47.924 110.847
v -10.812 57.382 113.381
v -10.812 69.386 106.459
v -1.008 71.931 97.003
v 8.796 62.472 94.470
v 8.796 50.469 101.392
v -14.897 30.333 132.306
v -7.952 23.633 130.512
v -1.008 16.933 128.717
v -7.977 35.230 140.800
v -1.033 28.530 139.005
v 5.912 21.831 137.210
v -1.008 16.933 128.717
v 12.881 20.539 115.322
v 5.912 21.831 137.210
v 19.801 25.436 123.815
v 12.881 20.539 115.322
v 12.881 37.544 105.516
v 19.801 25.436 123.815
v 19.801 42.442 114.009
v 12.881 37.544 105.516
v -1.008 50.944 109.105
v 19.801 42.442 114.009
v 5.912 55.841 117.599
v -1.008 50.944 109.105
v -14.897 47.338 122.501
v 5.912 55.841 117.599
v -7.977 52.235 130.994
v -14.897 47.338 122.501
v -14.897 30.333 132.306
v -7.977 52.235 130.994
v -7.977 35.230 140.800
v -7.977 35.230 140.800
v 5.912 21.831 137.210
v 19.801 25.436 123.815
v 19.801 42.442 114.009
v 5.912 55.841 117.599
v -7.977 52.235 130.994
v -1.008 16.933 128.717
v -14.897 30.333 132.306
v -14.897 47.338 122.501
v -1.008 50.944 109.105
v 12.881 37.544 105.516
v 12.881 20.539 115.322
v -11.096 -24.746 76.196
v -44.541 -48.417 35.146
v 2.352 -64.950 6.474
v 35.797 -41.279 47.524
v 2.352 -64.950 6.474
v 35.797 -41.279 47.524
v 2.352 -49.790 -2.268
v 35.797 -26.119 38.782
v 2.352 -49.790 -2.268
v 2.352 -64.950 6.474
v -44.541 -48.417 35.146
v -44.541 -33.257 26.404
v -44.541 -33.257 26.404
v -44.541 -48.417 35.146
v -11.096 -9.586 67.454
v -11.096 -24.746 76.196
v -11.096 -24.746 76.196
v 35.797 -41.279 47.524
v -11.096 -9.586 67.454
v 35.797 -26.119 38.782
v 35.797 -26.119 38.782
v -44.541 -33.257 26.404
v -11.096 -9.586 67.454
v 2.352 -49.790 -2.268
v 74.212 63.294 40.699
v 39.614 38.806 -1.766
v 84.369 48.944 40.699
v 49.770 24.456 -1.766
v 84.369 -0.061 68.958
v 74.212 -7.250 81.378
v 49.770 -24.549 26.492
v 39.614 -31.737 38.912
v 84.369 48.944 40.699
v 84.369 -0.061 68.958
v 49.770 24.456 -1.766
v 49.770 -24.549 26.492
v 74.212 -7.250 81.378
v 74.212 63.294 40.699
v 84.369 48.944 40.699
v 84.369 -0.061 68.958
v 74.212 -7.250 81.378
v 74.212 63.294 40.699
v 39.614 -31.737 38.912
v 39.614 38.806 -1.766
v 39.614 38.806 -1.766
v 39.614 -31.737 38.912
v 49.770 24.456 -1.766
v 49.770 -24.549 26.492
v 74.212 -10.341 83.160
v 39.614 -34.828 40.695
v 23.502 7.538 114.166
v -11.096 -16.949 71.700
v 74.212 63.294 40.699
v 39.614 38.806 -1.766
v 23.502 81.173 71.705
v -11.096 56.685 29.239
v 74.212 63.294 40.699
v 23.502 7.538 114.166
v 74.212 -10.341 83.160
v 23.502 81.173 71.705
v -11.096 -16.949 71.700
v 23.502 81.173 71.705
v -11.096 56.685 29.239
v 23.502 7.538 114.166
v -11.096 56.685 29.239
v -11.096 -16.949 71.700
v 39.614 38.806 -1.766
v 39.614 -34.828 40.695
v 74.212 -10.341 83.160
v 74.212 63.294 40.699
v 39.614 38.806 -1.766
v 39.614 -34.828 40.695
v 23.502 81.173 71.705
v -44.541 33.014 -11.811
v -25.518 98.456 101.677
v -93.561 50.298 18.162
v -25.518 98.456 101.677
v 23.502 81.173 71.705
v -25.518 8.362 153.629
v 23.502 -8.922 123.657
v -25.518 98.456 101.677
v -93.561 50.298 18.162
v -25.518 8.362 153.629
v -93.561 -39.797 70.113
v -25.518 8.362 153.629
v 23.502 -8.922 123.657
v -93.561 -39.797 70.113
v -44.541 -57.080 40.141
v -44.541 33.014 -11.811
v -93.561 50.298 18.162
v -44.541 -57.080 40.141
v -93.561 -39.797 70.113
v 23.502 81.173 71.705
v -44.541 33.014 -11.811
v 23.502 -8.922 123.657
v -44.541 -57.080 40.141
v 3.759 -4.861 52.626
v -45.461 -35.208 0.000
v -0.475 -3.368 55.215
v -17.679 -20.034 26.313
v -39.118 -35.208 0.000
v 39.409 -17.430 30.829
v 30.989 -18.957 38.570
v 21.432 -17.156 45.318
v 11.930 -12.151 50.173
v -39.118 -35.208 0.000
v -17.679 -20.034 26.313
v 3.759 -4.861 52.626
v 31.036 -23.356 20.553
v 22.664 -29.282 10.276
v 14.291 -35.208 0.000
v 7.972 -38.264 0.000
v 1.377 -40.671 0.000
v -12.413 -43.206 0.000
v -26.552 -41.832 0.000
v 9.550 -34.130 12.257
v -9.508 -27.324 23.860
v 33.944 -21.298 6.740
v 46.502 -12.410 22.155
v 43.246 -15.334 26.494
v 14.291 -35.208 0.000
v 39.409 -17.430 30.829
v 22.664 -29.282 10.276
v 31.036 -23.356 20.553
v 28.452 -25.185 0.000
v 21.664 -30.609 0.000
v 30.687 -24.223 11.080
v 46.502 25.391 0.357
v 28.452 -25.185 0.000
v 46.502 -12.410 22.155
v 33.944 -21.298 6.740
v 46.357 25.288 0.179
v 46.211 25.185 -0.000
v 39.118 35.208 -0.000
v 39.409 35.414 0.357
v 40.747 33.867 0.159
v 42.027 32.265 0.040
v 43.248 30.609 -0.000
v 39.691 34.685 -0.000
v 40.249 34.148 0.000
v 40.790 33.595 0.000
v 41.316 33.028 0.000
v 41.824 32.445 0.000
v 42.316 31.848 0.000
v 42.791 31.236 0.000
v 43.248 30.609 -0.000
v 43.949 29.594 0.014
v 44.626 28.563 0.057
v 45.278 27.516 0.129
v 45.904 26.459 0.229
v 46.211 25.185 -0.000
v 46.357 25.288 0.179
v 46.502 25.391 0.357
v 46.061 25.823 0.111
v 45.831 26.407 0.140
v 46.134 25.874 0.200
v 43.687 29.970 0.000
v 44.106 29.318 0.000
v 44.506 28.656 0.000
v 44.886 27.983 0.000
v 45.247 27.298 0.000
v 45.588 26.604 0.000
v 45.909 25.899 0.000
v -20.635 35.208 -0.000
v -0.475 49.476 24.744
v 39.409 35.414 0.357
v 39.118 35.208 -0.000
v -45.461 -35.208 0.000
v -0.475 49.476 24.744
v -0.475 -3.368 55.215
v -20.635 35.208 -0.000
v -44.502 -32.486 0.000
v -21.594 32.486 -0.000
v -0.475 47.433 25.921
v -0.475 -1.326 54.038
v 1.505 -1.806 0.000
v -45.461 -35.208 0.000
v -39.118 -35.208 0.000
v -6.535 -24.612 0.000
v -14.457 3.822 0.000
v -22.498 -18.984 0.000
v -26.518 -30.386 0.000
v -30.479 -16.170 0.000
v -34.500 -27.572 0.000
v 39.118 35.208 -0.000
v -20.635 35.208 -0.000
v -21.594 32.486 -0.000
v -44.502 -32.486 0.000
v -36.510 -33.274 0.000
v -38.490 -26.166 0.000
v -40.500 -31.867 0.000
v -26.552 -41.832 0.000
v -12.413 -43.206 0.000
v 1.377 -40.671 0.000
v 7.972 -38.264 0.000
v 14.291 -35.208 0.000
v 17.468 -7.434 0.000
v 9.427 -30.240 0.000
v 21.664 -30.609 0.000
v 28.452 -25.185 0.000
v 46.211 25.185 -0.000
v 45.909 25.899 0.000
v 45.588 26.604 0.000
v 45.247 27.298 0.000
v 44.886 27.983 0.000
v 44.506 28.656 0.000
v 44.106 29.318 0.000
v 43.687 29.970 0.000
v 43.248 30.609 -0.000
v 9.546 20.999 -0.000
v 25.508 15.371 -0.000
v 33.489 12.557 0.000
v 29.528 26.774 -0.000
v 37.510 23.960 -0.000
v 41.500 22.553 -0.000
v 39.520 29.661 -0.000
v 43.510 28.254 -0.000
v 43.496 21.849 -0.000
v 42.505 25.403 -0.000
v 44.501 24.700 -0.000
v 37.480 11.150 0.000
v 35.500 18.258 -0.000
v 39.490 16.851 -0.000
v 25.449 -10.248 0.000
v 21.488 3.968 0.000
v 29.469 1.154 0.000
v 45.003 26.125 -0.000
v 43.503 25.052 -0.000
v 44.508 27.902 -0.000
v 43.008 26.829 -0.000
v 44.006 26.477 -0.000
v 39.505 23.256 -0.000
v 41.515 28.958 -0.000
v 38.515 26.810 -0.000
v 40.510 26.107 -0.000
v 33.519 25.367 -0.000
v 31.539 32.475 -0.000
v 35.529 31.068 -0.000
v 17.527 18.185 -0.000
v 13.566 32.402 -0.000
v 21.547 29.588 -0.000
v -6.417 26.627 -0.000
v 40.525 32.512 -0.000
v 42.513 28.606 -0.000
v 42.018 30.383 -0.000
v 43.015 30.031 -0.000
v 42.791 31.236 0.000
v 42.316 31.848 0.000
v 41.824 32.445 0.000
v 41.316 33.028 0.000
v 40.790 33.595 0.000
v 40.249 34.148 0.000
v 39.691 34.685 -0.000
v 40.518 29.309 -0.000
v 40.022 31.086 -0.000
v 41.020 30.735 -0.000
v 37.525 30.365 -0.000
v 36.534 33.919 -0.000
v 38.530 33.215 -0.000
v 39.527 32.864 -0.000
v 39.032 34.641 -0.000
v 37.532 33.567 -0.000
v 38.034 34.992 -0.000
v 33.534 31.772 -0.000
v 34.539 34.622 -0.000
v 25.538 28.181 -0.000
v 27.548 33.882 -0.000
v -14.398 29.441 -0.000
v -22.439 6.636 0.000
v -10.437 15.224 0.000
v -18.418 18.038 0.000
v -0.475 -3.368 55.215
v 3.759 -4.861 52.626
v 23.014 12.072 27.175
v 11.034 16.296 34.499
v 11.034 1.403 43.087
v 5.045 18.407 38.162
v 5.045 3.514 46.749
v 11.930 -12.151 50.173
v 21.432 -17.156 45.318
v 30.989 -18.957 38.570
v 34.993 7.848 19.850
v 39.409 -17.430 30.829
v 43.246 -15.334 26.494
v 34.993 -7.044 28.438
v 40.983 5.737 16.188
v 40.983 -9.156 24.776
v 46.502 -12.410 22.155
v 46.502 25.391 0.357
v 45.904 26.459 0.229
v 45.278 27.516 0.129
v 44.626 28.563 0.057
v 43.949 29.594 0.014
v 43.248 30.609 -0.000
v 34.993 22.741 11.263
v 40.983 20.630 7.600
v 40.983 28.076 3.306
v 43.977 19.574 5.769
v 43.977 27.020 1.475
v 43.977 23.297 3.622
v 45.475 19.046 4.854
v 45.475 26.492 0.560
v 45.475 22.769 2.707
v 40.983 13.183 11.894
v 43.977 4.681 14.357
v 43.977 12.127 10.063
v 40.983 31.799 1.159
v 42.480 27.548 2.391
v 34.993 30.188 6.969
v 37.988 21.685 9.431
v 37.988 29.132 5.138
v 23.014 26.965 18.587
v 29.003 9.960 23.513
v 29.003 24.853 14.925
v 39.409 35.414 0.357
v -0.475 49.476 24.744
v 42.027 32.265 0.040
v 40.747 33.867 0.159
v 37.988 32.855 2.991
v 39.485 28.604 4.222
v 39.485 32.327 2.075
v -0.475 47.433 25.921
v -0.475 -1.326 54.038
v 11.034 31.188 25.911
v 5.045 33.300 29.574
v 2.050 34.356 31.405
v 5.045 40.747 25.280
v 2.050 41.803 27.111
f 5 4 2
f 6 5 2
f 8 7 5
f 9 8 5
f 14 13 11
f 15 14 11
f 17 16 14
f 18 17 14
f 22 21 20
f 26 25 23
f 30 29 28
f 32 31 30
f 36 35 34
f 38 37 35
f 41 42 43
f 40 41 43
f 39 40 44
f 43 44 40
f 49 50 45
f 48 49 45
f 47 48 46
f 45 46 48
f 4 1 2
f 6 2 3
f 7 4 5
f 9 5 6
f 13 10 11
f 15 11 12
f 16 13 14
f 18 14 15
f 21 19 20
f 26 23 24
f 29 27 28
f 31 29 30
f 35 33 34
f 38 35 36
f 55 54 51
f 56 55 52
f 60 59 58
f 64 63 62
f 68 67 66
f 72 71 70
f 76 75 74
f 81 79 80
f 78 79 81
f 78 81 77
f 82 77 81
f 86 87 88
f 83 86 88
f 85 86 84
f 83 84 86
f 55 51 52
f 56 52 53
f 59 57 58
f 63 61 62
f 67 65 66
f 71 69 70
f 75 73 74
f 91 92 89
f 93 95 96
f 98 99 100
f 102 104 103
f 105 106 107
f 109 112 111
f 91 89 90
f 93 96 94
f 98 100 97
f 102 103 101
f 106 108 107
f 112 110 111
f 116 114 113
f 120 119 117
f 124 123 122
f 127 126 128
f 132 131 130
f 134 133 135
f 116 113 115
f 120 117 118
f 123 121 122
f 126 125 128
f 131 129 130
f 134 135 136
f 138 137 139
f 142 144 143
f 145 148 147
f 149 152 150
f 154 153 156
f 158 157 159
f 138 139 140
f 142 143 141
f 148 146 147
f 149 150 151
f 153 155 156
f 157 160 159
f 162 164 163
f 166 165 168
f 170 172 169
f 176 174 173
f 178 177 179
f 182 181 184
f 162 163 161
f 165 167 168
f 172 171 169
f 176 173 175
f 178 179 180
f 181 183 184
f 186 189 188
f 185 187 188
f 186 188 187
f 200 199 198
f 200 204 201
f 202 201 204
f 204 200 198
f 197 204 198
f 197 190 191
f 197 191 204
f 191 192 204
f 205 203 202
f 195 194 205
f 203 205 194
f 204 192 205
f 193 205 192
f 195 205 193 196
f 202 204 205
f 215 214 213
f 207 208 215 206
f 213 206 215
f 215 211 214
f 211 215 212
f 210 212 208
f 212 215 208
f 209 214 211
f 218 221 220
f 218 220 216
f 221 219 217
f 221 218 219
f 223 228 227
f 223 227 222
f 223 224 228
f 229 228 224
f 230 229 224
f 225 232 231
f 225 231 230
f 226 233 225
f 232 225 233
f 224 225 230
f 242 243 244
f 236 247 246
f 237 249 248
f 236 248 247
f 235 245 234
f 246 245 235
f 236 246 235
f 236 237 248
f 237 243 249
f 242 251 250
f 239 251 240
f 242 240 251
f 243 242 250
f 243 237 238
f 244 243 238
f 241 240 244
f 238 241 244
f 244 240 242
f 250 249 243
f 255 252 253
f 253 254 255
f 258 263 260 256
f 263 261 260
f 262 257 259 261
f 263 262 261
f 358 264 268
f 298 358 330
f 264 358 298
f 268 357 359 358
f 358 359 356 330
f 314 313 299 300
f 312 285 313 314
f 320 310 302
f 311 320 303
f 310 320 311
f 309 300 310 311
f 308 316 319 315
f 319 318 305 317
f 316 307 318 319
f 316 303 307
f 306 316 308
f 303 316 306
f 332 321 333 334
f 321 342 344 333
f 331 344 343
f 342 304 343 344
f 303 320 323 307
f 318 332 305
f 332 323 321
f 323 318 307
f 318 323 332
f 342 322 304
f 323 342 321
f 322 342 323
f 320 302 322 323
f 322 345 304
f 345 324 326
f 324 322 302
f 322 324 345
f 343 348 331
f 348 345 347
f 345 343 304
f 343 345 348
f 347 350 351 349
f 350 326 346
f 345 350 347
f 326 350 345
f 326 352 353 346
f 352 301 325
f 324 352 326
f 301 352 324
f 310 324 302
f 324 299 301
f 299 310 300
f 310 299 324
f 354 327 329
f 299 354 301
f 327 354 299
f 301 354 355 325
f 327 298 328 329
f 313 327 299
f 327 264 298
f 264 313 285
f 313 264 327
f 267 269 268 264
f 270 272 271 269
f 277 279 278 272
f 286 267 264 285
f 349 351 273
f 353 273 351
f 347 349 341
f 355 274 353
f 341 349 273
f 348 341 340
f 338 331 339
f 340 339 348
f 331 338 337
f 351 346 353
f 353 352 325
f 355 353 325
f 337 344 331
f 339 331 348
f 341 348 347
f 351 350 346
f 274 273 353
f 336 344 337
f 333 336 335
f 335 334 333
f 332 334 296
f 333 344 336
f 297 334 335
f 296 334 297
f 294 305 295
f 296 295 305
f 317 294 293
f 296 305 332
f 292 319 317
f 315 319 292
f 293 292 317
f 294 317 305
f 315 291 290
f 290 289 308
f 306 308 289
f 315 290 308
f 315 292 291
f 356 275 274
f 275 356 359
f 359 357 275
f 330 356 274
f 330 328 298
f 274 328 330
f 268 269 271 357
f 357 271 278
f 278 275 357
f 355 328 274
f 276 278 279
f 279 266 265
f 276 279 265
f 276 275 278
f 266 279 277
f 280 277 270
f 272 270 277
f 266 277 280
f 267 270 269
f 278 271 272
f 270 281 280
f 355 354 329
f 311 303 306
f 288 314 309
f 306 309 311
f 300 309 314
f 289 288 309
f 286 282 267
f 281 267 282
f 283 282 286
f 281 270 267
f 312 286 285
f 314 288 312
f 287 312 288
f 312 287 286
f 287 284 286
f 284 283 286
f 306 289 309
f 355 329 328
f 373 375 374 370
f 392 384 398
f 398 383 370
f 370 374 392
f 392 398 370
f 374 393 394 392
f 392 394 386 384
f 388 387 396
f 396 385 384
f 384 386 388
f 388 396 384
f 386 389 391 388
f 388 391 390 387
f 383 398 399 397
f 408 399 398
f 384 385 408
f 398 384 408
f 399 408 409 407
f 408 385 395 409
f 362 401 402 400
f 401 370 383 402
f 366 364 363 365
f 365 363 412 413
f 414 413 415 416
f 380 387 379
f 381 387 380
f 378 379 390
f 387 390 379
f 391 378 390
f 387 381 382
f 406 395 405
f 403 409 406
f 405 395 396
f 382 405 396
f 403 407 409
f 409 395 406
f 382 396 387
f 407 403 397
f 389 377 391
f 376 377 389
f 393 376 389
f 386 394 389
f 394 393 389
f 391 377 378
f 395 385 396
f 376 375 372
f 374 375 393
f 372 375 371
f 375 373 371
f 393 375 376
f 397 399 407
f 402 383 397
f 397 400 402
f 397 403 400
f 404 416 415
f 415 400 403
f 410 416 404
f 412 363 362 400
f 413 412 415
f 410 414 416
f 414 410 411
f 400 415 412
f 403 404 415
f 414 365 413
f 401 369 373
f 370 401 373
f 362 369 401
f 369 362 368
f 364 367 368
f 364 368 362
f 371 373 369
f 362 363 364
f 364 366 361
f 411 361 366
f 361 411 360
f 411 366 365
f 411 365 414
f 367 364 361
