# OBJ
# COMPAS
# version: 2.13.0
# precision: 3
# V F E: 304 222 477

o Mesh 0
v -86.781 -50.500 118.180
v -44.394 -50.500 75.715
v -130.711 -50.500 74.332
v -88.324 -50.500 31.866
v -86.781 34.500 118.180
v -44.394 34.500 75.715
v -130.711 34.500 74.332
v -88.324 34.500 31.866
v -86.781 34.500 118.180
v -130.711 -50.500 74.332
v -86.781 -50.500 118.180
v -130.711 34.500 74.332
v -88.324 -50.500 31.866
v -130.711 34.500 74.332
v -88.324 34.500 31.866
v -130.711 -50.500 74.332
v -88.324 34.500 31.866
v -88.324 -50.500 31.866
v -44.394 34.500 75.715
v -44.394 -50.500 75.715
v -86.781 -50.500 118.180
v -86.781 34.500 118.180
v -44.394 34.500 75.715
v -44.394 -50.500 75.715
v -86.781 34.500 118.180
v -44.394 34.500 75.715
v -77.983 22.069 126.963
v -35.595 22.069 84.497
v -77.983 -34.500 126.963
v -86.781 -46.931 118.180
v -35.595 -34.500 84.497
v -44.394 -46.931 75.715
v -77.983 22.069 126.963
v -77.983 -34.500 126.963
v -35.595 22.069 84.497
v -35.595 -34.500 84.497
v -86.781 -46.931 118.180
v -86.781 34.500 118.180
v -77.983 22.069 126.963
v -77.983 -34.500 126.963
v -86.781 -46.931 118.180
v -86.781 34.500 118.180
v -44.394 -46.931 75.715
v -44.394 34.500 75.715
v -44.394 34.500 75.715
v -44.394 -46.931 75.715
v -35.595 22.069 84.497
v -35.595 -34.500 84.497
v -88.324 -59.500 31.866
v -47.349 -59.500 -9.184
v -6.726 -59.500 31.364
v -47.700 -59.500 72.414
v -6.726 -59.500 31.364
v -47.700 -59.500 72.414
v -6.726 -42.000 31.364
v -47.700 -42.000 72.414
v -6.726 -42.000 31.364
v -6.726 -59.500 31.364
v -47.349 -59.500 -9.184
v -47.349 -42.000 -9.184
v -47.349 -42.000 -9.184
v -47.349 -59.500 -9.184
v -88.324 -42.000 31.866
v -88.324 -59.500 31.866
v -88.324 -59.500 31.866
v -47.700 -59.500 72.414
v -88.324 -42.000 31.866
v -47.700 -42.000 72.414
v -47.700 -42.000 72.414
v -47.349 -42.000 -9.184
v -88.324 -42.000 31.866
v -6.726 -42.000 31.364
v -163.976 -39.815 41.129
v -157.960 -44.722 47.133
v -151.944 -49.630 53.138
v -172.453 -39.815 49.622
v -166.437 -44.722 55.627
v -160.421 -49.630 61.631
v -151.944 -49.630 53.138
v -139.912 -39.815 65.148
v -160.421 -49.630 61.631
v -148.389 -39.815 73.641
v -139.912 -39.815 65.148
v -139.912 -20.185 65.148
v -148.389 -39.815 73.641
v -148.389 -20.185 73.641
v -139.912 -20.185 65.148
v -151.944 -10.370 53.138
v -148.389 -20.185 73.641
v -160.421 -10.370 61.631
v -151.944 -10.370 53.138
v -163.976 -20.185 41.129
v -160.421 -10.370 61.631
v -172.453 -20.185 49.622
v -163.976 -20.185 41.129
v -163.976 -39.815 41.129
v -172.453 -20.185 49.622
v -172.453 -39.815 49.622
v -172.453 -39.815 49.622
v -160.421 -49.630 61.631
v -148.389 -39.815 73.641
v -148.389 -20.185 73.641
v -160.421 -10.370 61.631
v -172.453 -20.185 49.622
v -151.944 -49.630 53.138
v -163.976 -39.815 41.129
v -163.976 -20.185 41.129
v -151.944 -10.370 53.138
v -139.912 -20.185 65.148
v -139.912 -39.815 65.148
v -160.437 -6.928 44.661
v -156.190 -10.392 48.900
v -151.944 -13.856 53.138
v -161.846 -5.485 49.612
v -158.484 -8.227 52.968
v -155.123 -10.970 56.323
v -163.256 -4.041 54.563
v -160.779 -6.062 57.036
v -158.302 -8.083 59.508
v -151.944 -13.856 53.138
v -147.697 -10.392 57.377
v -143.450 -6.928 61.616
v -155.123 -10.970 56.323
v -151.761 -8.227 59.679
v -148.399 -5.485 63.034
v -158.302 -8.083 59.508
v -155.825 -6.062 61.981
v -153.347 -4.041 64.453
v -143.450 -6.928 61.616
v -143.450 6.928 61.616
v -153.347 -4.041 64.453
v -153.347 4.041 64.453
v -143.450 6.928 61.616
v -151.944 13.856 53.138
v -153.347 4.041 64.453
v -158.302 8.083 59.508
v -151.944 13.856 53.138
v -160.437 6.928 44.661
v -155.123 10.970 56.323
v -161.846 5.485 49.612
v -158.302 8.083 59.508
v -163.256 4.041 54.563
v -160.437 6.928 44.661
v -160.437 -6.928 44.661
v -161.846 5.485 49.612
v -161.846 -5.485 49.612
v -163.256 4.041 54.563
v -163.256 -4.041 54.563
v -163.256 -4.041 54.563
v -158.302 -8.083 59.508
v -153.347 -4.041 64.453
v -153.347 4.041 64.453
v -158.302 8.083 59.508
v -163.256 4.041 54.563
v -151.944 -13.856 53.138
v -160.437 -6.928 44.661
v -160.437 6.928 44.661
v -151.944 13.856 53.138
v -143.450 6.928 61.616
v -143.450 -6.928 61.616
v -130.711 34.500 74.332
v -47.349 34.500 -9.184
v -173.176 34.500 31.945
v -89.815 34.500 -51.571
v -173.176 34.500 31.945
v -130.711 34.500 74.332
v -173.176 -69.500 31.945
v -130.711 -69.500 74.332
v -173.176 34.500 31.945
v -89.815 34.500 -51.571
v -173.176 -69.500 31.945
v -89.815 -69.500 -51.571
v -173.176 -69.500 31.945
v -130.711 -69.500 74.332
v -89.815 -69.500 -51.571
v -47.349 -69.500 -9.184
v -47.349 34.500 -9.184
v -89.815 34.500 -51.571
v -47.349 -69.500 -9.184
v -89.815 -69.500 -51.571
v -130.711 34.500 74.332
v -47.349 34.500 -9.184
v -130.711 -69.500 74.332
v -47.349 -69.500 -9.184
v -44.572 -30.500 75.537
v 30.826 -30.500 -0.000
v -51.866 -35.690 68.256
v -14.167 -35.690 30.488
v -60.145 -37.500 59.993
v -22.446 -37.500 22.224
v -68.376 -35.590 51.777
v -30.677 -35.590 14.008
v -75.455 -30.500 44.711
v -37.756 -30.500 6.943
v -33.017 -35.690 49.372
v -10.311 -33.445 34.337
v -29.160 -33.445 53.222
v -49.527 -35.590 32.893
v -26.642 -36.998 18.036
v -41.296 -37.500 41.108
v -45.491 -36.998 36.920
v -34.416 -33.375 10.276
v -53.266 -33.375 29.160
v -30.826 -30.500 0.000
v 5.693 -30.500 25.179
v -19.439 -30.500 50.358
v -15.819 -35.790 0.000
v 0.000 -37.500 -0.000
v 15.819 -35.790 -0.000
v -38.149 30.500 -0.000
v -79.123 30.500 41.050
v -38.149 -30.500 0.000
v -79.123 -30.500 41.050
v -79.123 28.142 41.050
v -68.879 -0.000 30.788
v -74.001 -0.000 35.919
v -68.879 15.250 30.788
v -74.001 15.250 35.919
v -76.562 15.250 38.484
v -74.001 22.875 35.919
v -76.562 22.875 38.484
v -79.123 -28.142 41.050
v -68.879 -15.250 30.788
v -74.001 -15.250 35.919
v -76.562 -15.250 38.484
v -74.001 -22.875 35.919
v -76.562 -22.875 38.484
v -38.149 -28.142 -0.000
v -48.392 -0.000 10.263
v -48.392 -15.250 10.263
v -43.270 -0.000 5.131
v -43.270 -15.250 5.131
v -43.270 -22.875 5.131
v -40.709 -15.250 2.566
v -40.709 -22.875 2.566
v -38.149 28.142 0.000
v -48.392 15.250 10.263
v -43.270 15.250 5.131
v -40.709 15.250 2.566
v -43.270 22.875 5.131
v -40.709 22.875 2.566
v -75.455 -30.500 44.711
v -30.826 -30.500 0.000
v -79.123 -30.500 41.050
v -37.756 -30.500 6.943
v -54.057 -30.500 21.440
v -38.149 -30.500 0.000
v -65.215 -30.500 32.618
v -53.599 -30.500 21.898
v -64.756 -30.500 33.076
v -55.891 -30.500 19.610
v -56.350 -30.500 19.152
v -67.049 -30.500 30.788
v -67.507 -30.500 30.330
v -44.734 -30.500 8.432
v -45.193 -30.500 7.974
v -42.900 -30.500 10.263
v -42.442 -30.500 10.720
v -38.427 -21.817 81.671
v 2.334 -21.817 40.836
v 43.094 -21.817 -0.000
v -44.572 -30.500 75.537
v -19.439 -30.500 50.358
v 5.693 -30.500 25.179
v 30.826 -30.500 -0.000
v -38.427 21.817 81.671
v 43.094 21.817 0.000
v -38.427 -21.817 81.671
v 2.334 -21.817 40.836
v 2.334 21.817 40.836
v 43.094 -21.817 -0.000
v -44.572 30.500 75.537
v -38.427 21.817 81.671
v 2.334 21.817 40.836
v 43.094 21.817 0.000
v 30.826 30.500 -0.000
v -79.123 30.500 41.050
v -44.572 30.500 75.537
v 30.826 30.500 -0.000
v -38.149 30.500 -0.000
v -75.455 -30.500 44.711
v -68.376 -35.590 51.777
v -60.145 -37.500 59.993
v -51.866 -35.690 68.256
v -44.572 -30.500 75.537
v -38.427 -21.817 81.671
v -38.427 21.817 81.671
v -44.572 30.500 75.537
v -79.123 30.500 41.050
v -79.123 -30.500 41.050
v -79.123 28.142 41.050
v -79.123 -28.142 41.050
v 43.094 21.817 0.000
v 43.094 -21.817 -0.000
v -38.149 -30.500 0.000
v -38.149 -28.142 -0.000
v -38.149 28.142 0.000
v -38.149 30.500 -0.000
v 30.826 30.500 -0.000
v 30.826 -30.500 -0.000
v 15.819 -35.790 -0.000
v 0.000 -37.500 -0.000
v -15.819 -35.790 0.000
v -30.826 -30.500 0.000
f 2 1 3
f 6 8 7
f 9 12 10
f 13 16 14
f 18 17 19
f 22 21 24
f 2 3 4
f 6 7 5
f 9 10 11
f 13 14 15
f 18 19 20
f 22 24 23
f 28 26 27
f 32 31 29
f 36 35 33
f 39 38 37
f 44 43 41
f 46 45 47
f 26 25 27
f 32 29 30
f 36 33 34
f 39 37 40
f 44 41 42
f 46 47 48
f 51 52 49
f 53 55 56
f 58 59 60
f 62 64 63
f 65 66 68
f 69 72 71
f 51 49 50
f 53 56 54
f 58 60 57
f 62 63 61
f 65 68 67
f 72 70 71
f 77 76 74
f 78 77 74
f 82 81 79
f 86 85 83
f 90 89 88
f 94 93 92
f 98 97 95
f 103 101 102
f 100 101 103
f 100 103 99
f 104 99 103
f 108 109 110
f 105 108 110
f 107 108 106
f 105 106 108
f 76 73 74
f 78 74 75
f 82 79 80
f 86 83 84
f 89 87 88
f 93 91 92
f 98 95 96
f 115 114 112
f 116 115 112
f 118 117 115
f 119 118 115
f 124 123 121
f 125 124 121
f 127 126 124
f 128 127 124
f 132 131 130
f 136 135 134
f 140 139 137
f 142 141 140
f 146 145 143
f 148 147 145
f 151 152 153
f 150 151 153
f 149 150 154
f 153 154 150
f 159 160 155
f 158 159 155
f 157 158 156
f 155 156 158
f 114 111 112
f 116 112 113
f 117 114 115
f 119 115 116
f 123 120 121
f 125 121 122
f 126 123 124
f 128 124 125
f 131 129 130
f 135 133 134
f 140 137 138
f 141 139 140
f 146 143 144
f 148 145 146
f 162 164 163
f 166 165 167
f 170 172 171
f 176 174 173
f 178 177 179
f 182 181 183
f 162 163 161
f 166 167 168
f 170 171 169
f 176 173 175
f 178 179 180
f 182 183 184
f 188 196 197 195
f 192 199 201 198
f 199 190 200 201
f 202 192 198 203
f 206 185 197
f 187 197 185
f 197 196 206
f 195 187 189 200
f 188 195 200 190
f 197 187 195
f 209 186 205
f 206 196 205
f 196 209 205
f 209 188 208
f 188 190 208
f 196 188 209
f 200 189 201
f 191 201 189
f 198 201 191
f 198 191 203
f 193 203 191
f 194 203 193
f 208 199 207
f 192 207 199
f 190 199 208
f 207 202 204
f 202 194 204
f 194 202 203
f 192 202 207
f 229 237 238 231
f 238 240 241 239
f 230 229 231 232
f 233 232 234 235
f 227 225 224 226
f 224 216 215 223
f 219 221 220 218
f 216 218 217 215
f 241 210 236
f 210 241 240
f 241 236 239
f 240 220 211 210
f 231 238 239
f 234 231 239
f 240 238 237
f 234 239 236 228
f 237 217 220 240
f 211 220 221
f 221 214 211
f 214 221 219
f 218 216 219
f 229 215 217 237
f 220 217 218
f 222 214 219 225
f 230 223 215 229
f 230 232 233
f 234 232 231
f 235 228 212
f 212 233 235
f 233 226 223 230
f 234 228 235
f 212 213 226 233
f 216 224 225
f 224 223 226
f 213 227 226
f 227 213 222
f 225 227 222
f 216 225 219
f 257 258 249 246
f 246 249 250 248
f 256 255 251 252
f 252 251 253 254
f 249 242 250
f 248 250 242
f 242 244 253 248
f 245 242 249
f 258 243 245
f 257 243 258
f 249 258 245
f 246 248 253 251
f 257 246 251 255
f 252 254 244
f 253 244 254
f 243 255 247
f 256 252 247
f 244 247 252
f 255 256 247
f 257 255 243
f 260 259 262 263
f 261 260 264 265
f 260 263 264
f 270 266 268 269
f 267 270 269 271
f 276 272 273 274
f 276 274 275
f 278 280 277
f 280 278 279
f 286 287 288
f 285 286 288
f 285 288 284
f 283 284 288
f 283 288 282
f 288 291 282
f 281 291 292
f 291 281 282
f 292 290 281
f 289 291 288
f 301 299 300
f 302 299 301
f 299 293 294
f 300 299 294
f 299 302 303
f 296 304 295
f 297 303 304
f 304 296 297
f 297 298 299
f 303 297 299
