# OBJ
# COMPAS
# version: 2.15.1
# precision: 3
# V F E: 266 173 390

o Mesh 0
v 38.404 34.500 95.096
v -44.957 34.500 11.581
v -4.061 34.500 137.483
v -87.423 34.500 53.968
v -4.061 34.500 137.483
v 38.404 34.500 95.096
v -4.061 -69.500 137.483
v 38.404 -69.500 95.096
v -4.061 34.500 137.483
v -87.423 34.500 53.968
v -4.061 -69.500 137.483
v -87.423 -69.500 53.968
v -4.061 -69.500 137.483
v 38.404 -69.500 95.096
v -87.423 -69.500 53.968
v -44.957 -69.500 11.581
v -44.957 34.500 11.581
v -87.423 34.500 53.968
v -44.957 -69.500 11.581
v -87.423 -69.500 53.968
v 38.404 34.500 95.096
v -44.957 34.500 11.581
v 38.404 -69.500 95.096
v -44.957 -69.500 11.581
v 8.678 -6.928 124.767
v 12.925 -10.392 120.529
v 17.171 -13.856 116.290
v 13.627 -5.485 126.186
v 16.989 -8.227 122.830
v 20.351 -10.970 119.475
v 18.575 -4.041 127.605
v 21.052 -6.062 125.132
v 23.530 -8.083 122.660
v 17.171 -13.856 116.290
v 21.418 -10.392 112.051
v 25.665 -6.928 107.812
v 20.351 -10.970 119.475
v 23.712 -8.227 116.119
v 27.074 -5.485 112.764
v 23.530 -8.083 122.660
v 26.007 -6.062 120.187
v 28.484 -4.041 117.715
v 25.665 -6.928 107.812
v 25.665 6.928 107.812
v 28.484 -4.041 117.715
v 28.484 4.041 117.715
v 25.665 6.928 107.812
v 17.171 13.856 116.290
v 28.484 4.041 117.715
v 23.530 8.083 122.660
v 17.171 13.856 116.290
v 8.678 6.928 124.767
v 20.351 10.970 119.475
v 13.627 5.485 126.186
v 23.530 8.083 122.660
v 18.575 4.041 127.605
v 8.678 6.928 124.767
v 8.678 -6.928 124.767
v 13.627 5.485 126.186
v 13.627 -5.485 126.186
v 18.575 4.041 127.605
v 18.575 -4.041 127.605
v 18.575 -4.041 127.605
v 23.530 -8.083 122.660
v 28.484 -4.041 117.715
v 28.484 4.041 117.715
v 23.530 8.083 122.660
v 18.575 4.041 127.605
v 17.171 -13.856 116.290
v 8.678 -6.928 124.767
v 8.678 6.928 124.767
v 17.171 13.856 116.290
v 25.665 6.928 107.812
v 25.665 -6.928 107.812
v 5.140 -39.815 128.300
v 11.156 -44.722 122.295
v 17.171 -49.630 116.290
v 13.617 -39.815 136.793
v 19.633 -44.722 130.788
v 25.649 -49.630 124.783
v 17.171 -49.630 116.290
v 29.203 -39.815 104.280
v 25.649 -49.630 124.783
v 37.681 -39.815 112.773
v 29.203 -39.815 104.280
v 29.203 -20.185 104.280
v 37.681 -39.815 112.773
v 37.681 -20.185 112.773
v 29.203 -20.185 104.280
v 17.171 -10.370 116.290
v 37.681 -20.185 112.773
v 25.649 -10.370 124.783
v 17.171 -10.370 116.290
v 5.140 -20.185 128.300
v 25.649 -10.370 124.783
v 13.617 -20.185 136.793
v 5.140 -20.185 128.300
v 5.140 -39.815 128.300
v 13.617 -20.185 136.793
v 13.617 -39.815 136.793
v 13.617 -39.815 136.793
v 25.649 -49.630 124.783
v 37.681 -39.815 112.773
v 37.681 -20.185 112.773
v 25.649 -10.370 124.783
v 13.617 -20.185 136.793
v 17.171 -49.630 116.290
v 5.140 -39.815 128.300
v 5.140 -20.185 128.300
v 17.171 -10.370 116.290
v 29.203 -20.185 104.280
v 29.203 -39.815 104.280
v -3.983 -59.500 52.631
v -44.957 -59.500 11.581
v -4.334 -59.500 -28.968
v 36.640 -59.500 12.082
v -4.334 -59.500 -28.968
v 36.640 -59.500 12.082
v -4.334 -42.000 -28.968
v 36.640 -42.000 12.082
v -4.334 -42.000 -28.968
v -4.334 -59.500 -28.968
v -44.957 -59.500 11.581
v -44.957 -42.000 11.581
v -44.957 -42.000 11.581
v -44.957 -59.500 11.581
v -3.983 -42.000 52.631
v -3.983 -59.500 52.631
v -3.983 -59.500 52.631
v 36.640 -59.500 12.082
v -3.983 -42.000 52.631
v 36.640 -42.000 12.082
v 36.640 -42.000 12.082
v -44.957 -42.000 11.581
v -3.983 -42.000 52.631
v -4.334 -42.000 -28.968
v 82.334 34.500 51.248
v 39.947 34.500 8.782
v 91.132 22.069 42.466
v 48.745 22.069 -0.000
v 91.132 -34.500 42.466
v 82.334 -46.931 51.248
v 48.745 -34.500 -0.000
v 39.947 -46.931 8.782
v 91.132 22.069 42.466
v 91.132 -34.500 42.466
v 48.745 22.069 -0.000
v 48.745 -34.500 -0.000
v 82.334 -46.931 51.248
v 82.334 34.500 51.248
v 91.132 22.069 42.466
v 91.132 -34.500 42.466
v 82.334 -46.931 51.248
v 82.334 34.500 51.248
v 39.947 -46.931 8.782
v 39.947 34.500 8.782
v 39.947 34.500 8.782
v 39.947 -46.931 8.782
v 48.745 22.069 -0.000
v 48.745 -34.500 -0.000
v 82.334 -50.500 51.248
v 39.947 -50.500 8.782
v 38.404 -50.500 95.096
v -3.983 -50.500 52.631
v 82.334 34.500 51.248
v 39.947 34.500 8.782
v 38.404 34.500 95.096
v -3.983 34.500 52.631
v 82.334 34.500 51.248
v 38.404 -50.500 95.096
v 82.334 -50.500 51.248
v 38.404 34.500 95.096
v -3.983 -50.500 52.631
v 38.404 34.500 95.096
v -3.983 34.500 52.631
v 38.404 -50.500 95.096
v -3.983 34.500 52.631
v -3.983 -50.500 52.631
v 39.947 34.500 8.782
v 39.947 -50.500 8.782
v 82.334 -50.500 51.248
v 82.334 34.500 51.248
v 39.947 34.500 8.782
v 39.947 -50.500 8.782
v 39.769 30.500 8.960
v 32.691 35.590 16.025
v 24.460 37.500 24.241
v 16.180 35.690 32.505
v 8.886 30.500 39.786
v 2.741 21.817 45.919
v 2.741 -21.817 45.919
v 8.886 -30.500 39.786
v 43.437 -30.500 5.298
v 43.437 30.500 5.298
v 5.562 26.519 43.104
v 5.559 -26.514 43.107
v 43.437 -28.142 5.298
v 43.437 28.142 5.298
v 8.886 30.500 39.786
v -30.826 30.500 0.000
v 16.180 35.690 32.505
v 24.460 37.500 24.241
v 32.691 35.590 16.025
v 39.769 30.500 8.960
v 30.826 30.500 -0.000
v 15.819 35.790 0.000
v 0.000 37.500 0.000
v -15.819 35.790 0.000
v -17.589 30.500 13.262
v -4.351 30.500 26.524
v 38.149 -30.500 0.000
v 43.437 -30.500 5.298
v 43.437 30.500 5.298
v 38.149 30.500 0.000
v 43.437 28.142 5.298
v 43.437 -28.142 5.298
v 39.769 30.500 8.960
v 30.826 30.500 -0.000
v 43.437 30.500 5.298
v 38.149 30.500 0.000
v 2.741 21.817 45.919
v -20.176 21.817 22.960
v -43.094 21.817 -0.000
v 5.562 26.519 43.104
v -17.355 26.519 20.144
v 8.886 30.500 39.786
v -5.897 26.519 31.624
v -18.837 24.246 21.623
v -7.378 24.246 33.102
v -15.748 28.609 18.540
v -4.290 28.609 30.020
v -30.826 30.500 0.000
v -4.351 30.500 26.524
v -17.589 30.500 13.262
v 2.741 -21.817 45.919
v -43.094 -21.817 -0.000
v 2.741 21.817 45.919
v -43.094 21.817 -0.000
v -20.176 21.817 22.960
v -20.176 -21.817 22.960
v 8.886 -30.500 39.786
v 5.559 -26.514 43.107
v -17.359 -26.514 20.147
v 2.741 -21.817 45.919
v -20.176 -21.817 22.960
v -43.094 -21.817 -0.000
v -5.900 -26.514 31.627
v -15.750 -28.607 18.542
v -4.292 -28.607 30.022
v -18.838 -24.244 21.624
v -7.380 -24.244 33.104
v -30.826 -30.500 -0.000
v 43.437 -30.500 5.298
v 8.886 -30.500 39.786
v -30.826 -30.500 -0.000
v 38.149 -30.500 0.000
v -30.826 30.500 0.000
v -15.819 35.790 0.000
v 0.000 37.500 0.000
v 15.819 35.790 0.000
v 30.826 30.500 -0.000
v 38.149 30.500 0.000
v -43.094 21.817 -0.000
v -43.094 -21.817 -0.000
v -30.826 -30.500 -0.000
v 38.149 -30.500 0.000
f 2 4 3
f 6 5 7
f 10 12 11
f 16 14 13
f 18 17 19
f 22 21 23
f 2 3 1
f 6 7 8
f 10 11 9
f 16 13 15
f 18 19 20
f 22 23 24
f 29 28 26
f 30 29 26
f 32 31 29
f 33 32 29
f 38 37 35
f 39 38 35
f 41 40 38
f 42 41 38
f 46 45 44
f 50 49 48
f 54 53 52
f 56 55 54
f 60 59 57
f 62 61 59
f 65 66 67
f 64 65 67
f 63 64 68
f 67 68 64
f 73 74 69
f 72 73 69
f 71 72 70
f 69 70 72
f 28 25 26
f 30 26 27
f 31 28 29
f 33 29 30
f 37 34 35
f 39 35 36
f 40 37 38
f 42 38 39
f 45 43 44
f 49 47 48
f 53 51 52
f 55 53 54
f 60 57 58
f 62 59 60
f 79 78 76
f 80 79 77
f 84 83 82
f 88 87 85
f 92 91 89
f 96 95 93
f 100 99 97
f 105 103 104
f 102 103 105
f 102 105 101
f 106 101 105
f 110 111 112
f 107 110 112
f 109 110 108
f 107 108 110
f 78 75 76
f 79 76 77
f 83 81 82
f 88 85 86
f 92 89 90
f 96 93 94
f 100 97 98
f 115 116 114
f 117 119 120
f 122 123 124
f 126 128 127
f 129 130 132
f 133 136 134
f 116 113 114
f 117 120 118
f 122 124 121
f 126 127 125
f 129 132 131
f 133 134 135
f 140 138 139
f 144 143 141
f 148 147 145
f 151 150 149
f 156 155 153
f 158 157 159
f 138 137 139
f 144 141 142
f 148 145 146
f 151 149 152
f 156 153 154
f 158 159 160
f 162 161 163
f 166 168 167
f 169 172 170
f 173 176 174
f 178 177 179
f 182 181 184
f 162 163 164
f 166 167 165
f 169 170 171
f 173 174 175
f 178 179 180
f 182 184 183
f 196 190 191
f 192 195 196
f 195 190 196
f 189 195 192
f 189 192 188
f 188 192 187
f 197 186 192
f 185 197 198
f 187 192 186
f 198 194 185
f 186 197 185
f 193 197 192
f 210 199 201
f 208 210 201
f 200 209 208
f 210 208 209
f 208 201 207
f 206 202 203
f 205 203 204
f 202 206 207
f 203 205 206
f 201 202 207
f 212 211 216
f 215 216 211 214
f 213 215 214
f 218 217 219 220
f 225 228 229 227
f 230 225 227 231
f 229 221 224
f 227 229 224
f 222 221 229
f 228 223 222
f 225 223 228
f 229 228 222
f 227 224 231
f 233 231 226
f 224 226 231
f 230 231 233 234
f 232 225 230
f 230 234 232
f 223 225 232
f 240 235 237 239
f 236 240 239 238
f 243 248 249 247
f 250 243 247 251
f 249 241 242
f 247 249 242
f 248 241 249
f 248 243 252
f 241 248 252
f 247 242 251
f 244 251 242
f 245 251 244
f 246 250 245
f 251 245 250
f 243 250 246
f 252 243 246
f 254 256 253
f 256 254 255
f 265 264 263
f 262 266 261
f 266 265 260
f 257 265 263
f 265 258 259
f 261 266 260
f 260 265 259
f 258 265 257
