# OBJ
# COMPAS
# version: 2.13.0
# precision: 3
# V F E: 269 188 409

o Mesh 0
v 40.000 88.312 39.640
v 40.000 4.950 -43.876
v 100.000 88.312 39.640
v 100.000 4.950 -43.876
v 100.000 88.312 39.640
v 40.000 88.312 39.640
v 100.000 14.705 113.111
v 40.000 14.705 113.111
v 100.000 88.312 39.640
v 100.000 4.950 -43.876
v 100.000 14.705 113.111
v 100.000 -68.657 29.595
v 100.000 14.705 113.111
v 40.000 14.705 113.111
v 100.000 -68.657 29.595
v 40.000 -68.657 29.595
v 40.000 4.950 -43.876
v 100.000 4.950 -43.876
v 40.000 -68.657 29.595
v 100.000 -68.657 29.595
v 40.000 88.312 39.640
v 40.000 4.950 -43.876
v 40.000 14.705 113.111
v 40.000 -68.657 29.595
v -22.069 28.152 99.688
v -22.069 -14.235 57.223
v 40.000 28.152 99.688
v 40.000 -14.235 57.223
v -22.069 88.312 39.640
v -22.069 45.925 -2.826
v 40.000 88.312 39.640
v 40.000 45.925 -2.826
v -22.069 88.312 39.640
v 40.000 28.152 99.688
v -22.069 28.152 99.688
v 40.000 88.312 39.640
v 40.000 -14.235 57.223
v 40.000 88.312 39.640
v 40.000 45.925 -2.826
v 40.000 28.152 99.688
v 40.000 45.925 -2.826
v 40.000 -14.235 57.223
v -22.069 45.925 -2.826
v -22.069 -14.235 57.223
v -22.069 28.152 99.688
v -22.069 88.312 39.640
v -22.069 45.925 -2.826
v -22.069 -14.235 57.223
v -22.069 88.312 39.640
v -22.069 45.925 -2.826
v -34.500 79.513 48.422
v -34.500 37.126 5.956
v -34.500 39.476 88.385
v -22.069 30.678 97.167
v -34.500 -2.911 45.919
v -22.069 -11.709 54.702
v -34.500 79.513 48.422
v -34.500 39.476 88.385
v -34.500 37.126 5.956
v -34.500 -2.911 45.919
v -22.069 30.678 97.167
v -22.069 88.312 39.640
v -34.500 79.513 48.422
v -34.500 39.476 88.385
v -22.069 30.678 97.167
v -22.069 88.312 39.640
v -22.069 -11.709 54.702
v -22.069 45.925 -2.826
v -22.069 45.925 -2.826
v -22.069 -11.709 54.702
v -34.500 37.126 5.956
v -34.500 -2.911 45.919
v 40.000 -20.605 63.581
v 40.000 -61.579 22.531
v -17.397 -61.579 22.531
v -17.397 -20.605 63.581
v -17.397 -61.579 22.531
v -17.397 -20.605 63.581
v -17.397 -49.193 10.168
v -17.397 -8.219 51.218
v -17.397 -49.193 10.168
v -17.397 -61.579 22.531
v 40.000 -61.579 22.531
v 40.000 -49.193 10.168
v 40.000 -49.193 10.168
v 40.000 -61.579 22.531
v 40.000 -8.219 51.218
v 40.000 -20.605 63.581
v 40.000 -20.605 63.581
v -17.397 -20.605 63.581
v 40.000 -8.219 51.218
v -17.397 -8.219 51.218
v -17.397 -8.219 51.218
v 40.000 -49.193 10.168
v 40.000 -8.219 51.218
v -17.397 -49.193 10.168
v 87.000 35.715 92.140
v 78.500 32.241 95.607
v 70.000 28.768 99.074
v 87.000 44.192 100.633
v 78.500 40.719 104.100
v 70.000 37.245 107.567
v 70.000 28.768 99.074
v 53.000 35.715 92.140
v 70.000 37.245 107.567
v 53.000 44.192 100.633
v 53.000 35.715 92.140
v 53.000 49.608 78.272
v 53.000 44.192 100.633
v 53.000 58.085 86.765
v 53.000 49.608 78.272
v 70.000 56.555 71.338
v 53.000 58.085 86.765
v 70.000 65.032 79.832
v 70.000 56.555 71.338
v 87.000 49.608 78.272
v 70.000 65.032 79.832
v 87.000 58.085 86.765
v 87.000 49.608 78.272
v 87.000 35.715 92.140
v 87.000 58.085 86.765
v 87.000 44.192 100.633
v 87.000 44.192 100.633
v 70.000 37.245 107.567
v 53.000 44.192 100.633
v 53.000 58.085 86.765
v 70.000 65.032 79.832
v 87.000 58.085 86.765
v 70.000 28.768 99.074
v 87.000 35.715 92.140
v 87.000 49.608 78.272
v 70.000 56.555 71.338
v 53.000 49.608 78.272
v 53.000 35.715 92.140
v 82.000 58.991 68.907
v 76.000 56.539 71.354
v 70.000 54.087 73.801
v 79.500 63.191 71.072
v 74.750 61.250 73.010
v 70.000 59.309 74.947
v 77.000 67.392 73.237
v 73.500 65.962 74.665
v 70.000 64.531 76.092
v 70.000 54.087 73.801
v 64.000 56.539 71.354
v 58.000 58.991 68.907
v 70.000 59.309 74.947
v 65.250 61.250 73.010
v 60.500 63.191 71.072
v 70.000 64.531 76.092
v 66.500 65.962 74.665
v 63.000 67.392 73.237
v 58.000 58.991 68.907
v 58.000 68.798 59.118
v 63.000 67.392 73.237
v 63.000 73.113 67.527
v 58.000 68.798 59.118
v 70.000 73.701 54.224
v 63.000 73.113 67.527
v 70.000 75.973 64.672
v 70.000 73.701 54.224
v 82.000 68.798 59.118
v 70.000 74.837 59.448
v 79.500 70.955 63.323
v 70.000 75.973 64.672
v 77.000 73.113 67.527
v 82.000 68.798 59.118
v 82.000 58.991 68.907
v 79.500 70.955 63.323
v 79.500 63.191 71.072
v 77.000 73.113 67.527
v 77.000 67.392 73.237
v 77.000 67.392 73.237
v 70.000 64.531 76.092
v 63.000 67.392 73.237
v 63.000 73.113 67.527
v 70.000 75.973 64.672
v 77.000 73.113 67.527
v 70.000 54.087 73.801
v 82.000 58.991 68.907
v 82.000 68.798 59.118
v 70.000 73.701 54.224
v 58.000 68.798 59.118
v 58.000 58.991 68.907
v 21.817 -0.080 43.094
v 27.000 -0.080 43.094
v 27.000 -43.094 -0.000
v 21.817 -43.094 -0.000
v -21.817 -0.080 43.094
v -11.511 -3.753 46.760
v 0.186 -5.034 48.038
v 11.816 -3.682 46.689
v 21.817 -0.080 43.094
v 21.817 -43.094 -0.000
v -21.817 -43.094 -0.000
v -21.817 -28.756 14.365
v -21.817 -14.418 28.729
v 11.907 -50.242 -0.000
v -0.000 -52.984 -0.000
v -11.907 -50.242 -0.000
v -30.500 6.065 36.960
v -26.514 2.738 40.281
v -26.514 -18.769 18.734
v -21.817 -0.080 43.094
v -21.817 -43.094 -0.000
v -21.817 -14.418 28.729
v -21.817 -28.756 14.365
v -26.514 -8.015 29.508
v -28.607 -17.160 17.129
v -28.607 -6.407 27.902
v -24.244 -20.249 20.211
v -24.244 -9.495 30.985
v -30.500 -30.826 -0.000
v -30.500 36.948 6.134
v -30.500 6.065 36.960
v -30.500 -30.826 -0.000
v -30.500 30.826 0.000
v -30.500 33.887 3.067
v -21.817 43.094 0.000
v -26.519 40.273 2.816
v -30.500 36.948 6.134
v -30.500 33.887 3.067
v -30.500 30.826 0.000
v -28.685 34.127 0.000
v -26.635 37.297 0.000
v -24.347 40.299 0.000
v 27.000 -43.094 -0.000
v 27.000 -0.080 43.094
v 27.000 1.589 41.428
v 27.000 41.425 1.665
v 27.000 10.753 10.773
v 27.000 16.130 16.160
v 27.000 -0.040 21.547
v 27.000 5.337 26.934
v 27.000 8.025 29.627
v 27.000 -0.060 32.320
v 27.000 2.629 35.014
v 27.000 43.094 0.000
v 27.000 39.763 0.000
v 27.000 -39.763 -0.000
v 27.000 -0.080 43.094
v 21.817 -0.080 43.094
v 11.816 -3.682 46.689
v 0.186 -5.034 48.038
v -11.511 -3.753 46.760
v -21.817 -0.080 43.094
v -26.514 2.738 40.281
v -30.500 6.065 36.960
v -30.500 36.948 6.134
v -26.519 40.273 2.816
v -21.817 43.094 0.000
v 27.000 43.094 0.000
v 27.000 41.425 1.665
v 27.000 1.589 41.428
v 27.000 -43.094 -0.000
v 21.817 -43.094 -0.000
v -21.817 43.094 0.000
v 27.000 43.094 0.000
v 11.907 -50.242 -0.000
v -0.000 -52.984 -0.000
v -11.907 -50.242 -0.000
v -21.817 -43.094 -0.000
v -30.500 -30.826 -0.000
v -30.500 30.826 0.000
v -28.685 34.127 0.000
v -26.635 37.297 0.000
v -24.347 40.299 0.000
v 27.000 39.763 0.000
v 27.000 -39.763 -0.000
f 2 1 3
f 6 8 7
f 10 9 12
f 16 15 13
f 18 20 19
f 22 24 21
f 2 3 4
f 6 7 5
f 9 11 12
f 16 13 14
f 18 19 17
f 24 23 21
f 26 28 27
f 30 29 31
f 33 35 34
f 37 39 40
f 42 44 43
f 46 47 45
f 26 27 25
f 30 31 32
f 33 34 36
f 39 38 40
f 42 43 41
f 47 48 45
f 52 51 49
f 56 54 55
f 60 58 59
f 63 64 61
f 68 66 65
f 70 72 69
f 52 49 50
f 54 53 55
f 58 57 59
f 63 61 62
f 68 65 67
f 72 71 69
f 75 74 73
f 77 78 79
f 82 81 84
f 86 85 88
f 89 91 92
f 93 95 94
f 75 73 76
f 78 80 79
f 82 84 83
f 85 87 88
f 89 92 90
f 93 94 96
f 101 98 100
f 102 99 98
f 106 104 103
f 110 108 107
f 114 112 111
f 118 116 117
f 122 120 121
f 127 126 125
f 124 127 125
f 124 123 127
f 128 127 123
f 132 134 133
f 129 134 132
f 131 130 132
f 129 132 130
f 98 97 100
f 102 98 101
f 106 103 105
f 110 107 109
f 114 111 113
f 116 115 117
f 120 119 121
f 139 136 138
f 140 137 136
f 142 139 141
f 143 140 139
f 148 145 147
f 149 146 145
f 151 148 150
f 152 149 148
f 156 154 155
f 160 158 157
f 164 162 161
f 166 164 165
f 170 168 167
f 172 170 171
f 175 177 176
f 174 177 175
f 173 178 174
f 177 174 178
f 183 179 184
f 182 179 183
f 181 180 182
f 179 182 180
f 136 135 138
f 140 136 139
f 139 138 141
f 143 139 142
f 145 144 147
f 149 145 148
f 148 147 150
f 152 148 151
f 154 153 155
f 160 157 159
f 164 161 163
f 164 163 165
f 170 167 169
f 170 169 171
f 188 187 186
f 197 190 189
f 196 190 197
f 195 200 196
f 190 196 200
f 200 199 190
f 198 192 191
f 194 193 192
f 199 198 191
f 194 192 198
f 190 199 191
f 203 208 209
f 211 212 208
f 210 202 201
f 208 202 210
f 209 210 201
f 209 213 203
f 201 213 209
f 208 212 202
f 206 204 212
f 202 212 204
f 211 206 212
f 205 211 203
f 211 205 207
f 207 206 211
f 213 205 203
f 215 214 218
f 216 215 217
f 218 217 215
f 226 220 219
f 220 226 225
f 225 221 220
f 225 224 222
f 222 224 223
f 221 225 222
f 231 232 233
f 234 235 237
f 237 229 228
f 235 229 237
f 236 237 228
f 240 228 227
f 233 236 240
f 240 236 228
f 235 230 229
f 239 238 230
f 232 239 230
f 236 233 234
f 239 232 231
f 234 232 235
f 240 231 233
f 231 240 239
f 230 235 232
f 250 249 248
f 251 250 247
f 247 250 248
f 246 251 247
f 246 245 251
f 245 244 251
f 253 251 243
f 242 254 253
f 244 243 251
f 254 242 241
f 243 242 253
f 252 251 253
f 267 262 266
f 257 262 267
f 265 263 264
f 265 266 263
f 262 263 266
f 262 257 261
f 259 257 268
f 256 269 255
f 256 268 269
f 261 257 260
f 259 260 257
f 268 256 259
f 258 268 257
f 188 186 185
f 208 210 209
f 211 208 203
f 232 234 233
f 234 237 236
