# OBJ
# COMPAS
# version: 2.15.1
# precision: 3
# V F E: 377 324 651

o Mesh 0
v -3.759 -4.861 52.626
v 45.461 -35.208 0.000
v 0.475 -3.368 55.215
v 17.679 -20.034 26.313
v 39.118 -35.208 0.000
v -39.409 -17.430 30.829
v -30.989 -18.957 38.570
v -21.432 -17.156 45.318
v -11.930 -12.151 50.173
v 39.118 -35.208 0.000
v 17.679 -20.034 26.313
v -3.759 -4.861 52.626
v -31.036 -23.356 20.553
v -22.664 -29.282 10.276
v -14.291 -35.208 0.000
v -7.972 -38.264 0.000
v -1.377 -40.671 0.000
v 12.413 -43.206 0.000
v 26.552 -41.832 0.000
v -9.550 -34.130 12.257
v 9.508 -27.324 23.860
v -33.944 -21.298 6.740
v -46.502 -12.410 22.155
v -43.246 -15.334 26.494
v -14.291 -35.208 0.000
v -39.409 -17.430 30.829
v -22.664 -29.282 10.276
v -31.036 -23.356 20.553
v -28.452 -25.185 0.000
v -21.664 -30.609 0.000
v -46.502 25.391 0.357
v -28.452 -25.185 0.000
v -46.502 -12.410 22.155
v -33.944 -21.298 6.740
v -46.211 25.185 0.000
v -39.118 35.208 -0.000
v -39.263 35.311 0.179
v -39.409 35.414 0.357
v -40.218 34.493 0.229
v -41.008 33.551 0.129
v -41.776 32.590 0.057
v -42.523 31.608 0.014
v -43.248 30.609 0.000
v -40.145 34.441 0.140
v -39.670 34.853 0.111
v -39.743 34.905 0.200
v -39.691 34.685 0.000
v -40.249 34.148 0.000
v -40.790 33.595 0.000
v -41.316 33.028 0.000
v -41.824 32.445 0.000
v -42.316 31.848 0.000
v -42.791 31.236 0.000
v -43.248 30.609 0.000
v -44.403 28.909 0.040
v -45.490 27.165 0.159
v -46.211 25.185 0.000
v -46.502 25.391 0.357
v -43.687 29.970 0.000
v -44.106 29.318 0.000
v -44.506 28.656 0.000
v -44.886 27.983 0.000
v -45.247 27.298 0.000
v -45.588 26.604 0.000
v -45.909 25.899 0.000
v 20.635 35.208 -0.000
v 0.475 49.476 24.744
v -39.409 35.414 0.357
v -39.118 35.208 -0.000
v -39.263 35.311 0.179
v -33.163 36.280 1.859
v -33.793 36.726 2.632
v -35.656 35.401 0.335
v -36.286 35.847 1.108
v -36.601 36.070 1.495
v -37.532 35.407 0.346
v -37.847 35.630 0.733
v -38.005 35.742 0.926
v -38.471 35.410 0.352
v -38.628 35.522 0.545
v 45.461 -35.208 0.000
v 0.475 49.476 24.744
v 0.475 -3.368 55.215
v 20.635 35.208 -0.000
v 44.502 -32.486 0.000
v 21.594 32.486 -0.000
v 22.968 7.134 12.372
v 11.722 15.094 26.176
v 11.722 28.305 18.558
v 17.345 11.114 19.274
v 22.968 20.345 4.754
v 17.345 24.325 11.656
v 17.345 30.930 7.847
v 20.156 22.335 8.205
v 22.968 26.950 0.945
v 20.156 28.940 4.396
v 0.475 47.433 25.921
v 0.475 -1.326 54.038
v 6.098 19.074 33.078
v 11.722 1.883 33.794
v 6.098 5.863 40.696
v 3.287 7.853 44.146
v 6.098 -0.743 44.504
v 3.287 1.247 47.955
v 6.098 32.285 25.460
v 3.287 34.275 28.911
v 6.098 38.890 21.651
v 3.287 40.880 25.102
v 45.461 -35.208 0.000
v 39.118 -35.208 0.000
v -39.118 35.208 -0.000
v 20.635 35.208 -0.000
v 21.594 32.486 -0.000
v 44.502 -32.486 0.000
v 26.552 -41.832 0.000
v 12.413 -43.206 0.000
v -1.377 -40.671 0.000
v -7.972 -38.264 0.000
v -14.291 -35.208 0.000
v -21.664 -30.609 0.000
v -28.452 -25.185 0.000
v -46.211 25.185 0.000
v -45.909 25.899 0.000
v -45.588 26.604 0.000
v -45.247 27.298 0.000
v -44.886 27.983 0.000
v -44.506 28.656 0.000
v -44.106 29.318 0.000
v -43.687 29.970 0.000
v -43.248 30.609 0.000
v -42.791 31.236 0.000
v -42.316 31.848 0.000
v -41.824 32.445 0.000
v -41.316 33.028 0.000
v -40.790 33.595 0.000
v -40.249 34.148 0.000
v -39.691 34.685 0.000
v 0.475 -3.368 55.215
v -3.759 -4.861 52.626
v -23.014 12.072 27.175
v -11.034 16.296 34.499
v -11.034 1.403 43.087
v -5.045 18.407 38.162
v -5.045 3.514 46.749
v -11.930 -12.151 50.173
v -21.432 -17.156 45.318
v -30.989 -18.957 38.570
v -34.993 7.848 19.850
v -39.409 -17.430 30.829
v -43.246 -15.334 26.494
v -34.993 -7.044 28.438
v -40.983 5.737 16.188
v -40.983 -9.156 24.776
v -46.502 -12.410 22.155
v -46.502 25.391 0.357
v -45.490 27.165 0.159
v -44.403 28.909 0.040
v -43.248 30.609 0.000
v -34.993 22.741 11.263
v -40.983 20.630 7.600
v -40.983 28.076 3.306
v -43.977 19.574 5.769
v -43.977 27.020 1.475
v -43.977 23.297 3.622
v -45.475 19.046 4.854
v -45.475 22.769 2.707
v -40.983 13.183 11.894
v -43.977 4.681 14.357
v -43.977 12.127 10.063
v -40.983 31.799 1.159
v -42.480 27.548 2.391
v -34.993 30.188 6.969
v -37.988 21.685 9.431
v -37.988 29.132 5.138
v -23.014 26.965 18.587
v -29.003 9.960 23.513
v -29.003 24.853 14.925
v -39.409 35.414 0.357
v 0.475 49.476 24.744
v -42.523 31.608 0.014
v -41.776 32.590 0.057
v -41.008 33.551 0.129
v -40.218 34.493 0.229
v -37.988 32.855 2.991
v -39.485 28.604 4.222
v -39.485 32.327 2.075
v 0.475 47.433 25.921
v 0.475 -1.326 54.038
v -11.034 31.188 25.911
v -5.045 33.300 29.574
v -2.050 34.356 31.405
v -5.045 40.747 25.280
v -2.050 41.803 27.111
v -23.502 81.173 71.705
v 44.541 33.014 -11.811
v 25.518 98.456 101.677
v 93.561 50.298 18.162
v 25.518 98.456 101.677
v -23.502 81.173 71.705
v 25.518 8.362 153.629
v -23.502 -8.922 123.657
v 25.518 98.456 101.677
v 93.561 50.298 18.162
v 25.518 8.362 153.629
v 93.561 -39.797 70.113
v 25.518 8.362 153.629
v -23.502 -8.922 123.657
v 93.561 -39.797 70.113
v 44.541 -57.080 40.141
v 44.541 33.014 -11.811
v 93.561 50.298 18.162
v 44.541 -57.080 40.141
v 93.561 -39.797 70.113
v -23.502 81.173 71.705
v 44.541 33.014 -11.811
v -23.502 -8.922 123.657
v 44.541 -57.080 40.141
v -74.212 -10.341 83.160
v -39.614 -34.828 40.695
v -23.502 7.538 114.166
v 11.096 -16.949 71.700
v -74.212 63.294 40.699
v -39.614 38.806 -1.766
v -23.502 81.173 71.705
v 11.096 56.685 29.239
v -74.212 63.294 40.699
v -23.502 7.538 114.166
v -74.212 -10.341 83.160
v -23.502 81.173 71.705
v 11.096 -16.949 71.700
v -23.502 81.173 71.705
v 11.096 56.685 29.239
v -23.502 7.538 114.166
v 11.096 56.685 29.239
v 11.096 -16.949 71.700
v -39.614 38.806 -1.766
v -39.614 -34.828 40.695
v -74.212 -10.341 83.160
v -74.212 63.294 40.699
v -39.614 38.806 -1.766
v -39.614 -34.828 40.695
v -74.212 63.294 40.699
v -39.614 38.806 -1.766
v -84.369 48.944 40.699
v -49.770 24.456 -1.766
v -84.369 -0.061 68.958
v -74.212 -7.250 81.378
v -49.770 -24.549 26.492
v -39.614 -31.737 38.912
v -84.369 48.944 40.699
v -84.369 -0.061 68.958
v -49.770 24.456 -1.766
v -49.770 -24.549 26.492
v -74.212 -7.250 81.378
v -74.212 63.294 40.699
v -84.369 48.944 40.699
v -84.369 -0.061 68.958
v -74.212 -7.250 81.378
v -74.212 63.294 40.699
v -39.614 -31.737 38.912
v -39.614 38.806 -1.766
v -39.614 38.806 -1.766
v -39.614 -31.737 38.912
v -49.770 24.456 -1.766
v -49.770 -24.549 26.492
v 11.096 -24.746 76.196
v 44.541 -48.417 35.146
v -2.352 -64.950 6.474
v -35.797 -41.279 47.524
v -2.352 -64.950 6.474
v -35.797 -41.279 47.524
v -2.352 -49.790 -2.268
v -35.797 -26.119 38.782
v -2.352 -49.790 -2.268
v -2.352 -64.950 6.474
v 44.541 -48.417 35.146
v 44.541 -33.257 26.404
v 44.541 -33.257 26.404
v 44.541 -48.417 35.146
v 11.096 -9.586 67.454
v 11.096 -24.746 76.196
v 11.096 -24.746 76.196
v -35.797 -41.279 47.524
v 11.096 -9.586 67.454
v -35.797 -26.119 38.782
v -35.797 -26.119 38.782
v 44.541 -33.257 26.404
v 11.096 -9.586 67.454
v -2.352 -49.790 -2.268
v 14.897 30.333 132.306
v 7.952 23.633 130.512
v 1.008 16.933 128.717
v 7.977 35.230 140.800
v 1.033 28.530 139.005
v -5.912 21.831 137.210
v 1.008 16.933 128.717
v -12.881 20.539 115.322
v -5.912 21.831 137.210
v -19.801 25.436 123.815
v -12.881 20.539 115.322
v -12.881 37.544 105.516
v -19.801 25.436 123.815
v -19.801 42.442 114.009
v -12.881 37.544 105.516
v 1.008 50.944 109.105
v -19.801 42.442 114.009
v -5.912 55.841 117.599
v 1.008 50.944 109.105
v 14.897 47.338 122.501
v -5.912 55.841 117.599
v 7.977 52.235 130.994
v 14.897 47.338 122.501
v 14.897 30.333 132.306
v 7.977 52.235 130.994
v 7.977 35.230 140.800
v 7.977 35.230 140.800
v -5.912 21.831 137.210
v -19.801 25.436 123.815
v -19.801 42.442 114.009
v -5.912 55.841 117.599
v 7.977 52.235 130.994
v 1.008 16.933 128.717
v 14.897 30.333 132.306
v 14.897 47.338 122.501
v 1.008 50.944 109.105
v -12.881 37.544 105.516
v -12.881 20.539 115.322
v 10.812 57.382 113.381
v 5.910 52.653 112.114
v 1.008 47.924 110.847
v 6.174 59.749 114.596
v 2.294 56.005 113.593
v -1.587 52.261 112.590
v 1.537 62.116 115.811
v -1.323 59.357 115.072
v -4.182 56.598 114.333
v 1.008 47.924 110.847
v -3.894 49.196 106.119
v -8.796 50.469 101.392
v -1.587 52.261 112.590
v -5.468 53.268 108.847
v -9.349 54.276 105.104
v -4.182 56.598 114.333
v -7.042 57.341 111.575
v -9.901 58.083 108.817
v -8.796 50.469 101.392
v -8.796 62.472 94.470
v -9.901 58.083 108.817
v -9.901 65.085 104.779
v -8.796 62.472 94.470
v 1.008 71.931 97.003
v -9.901 65.085 104.779
v -4.182 70.603 106.257
v 1.008 71.931 97.003
v 10.812 69.386 106.459
v -1.587 71.267 101.630
v 6.174 69.252 109.116
v -4.182 70.603 106.257
v 1.537 69.118 111.773
v 10.812 69.386 106.459
v 10.812 57.382 113.381
v 6.174 69.252 109.116
v 6.174 59.749 114.596
v 1.537 69.118 111.773
v 1.537 62.116 115.811
v 1.537 62.116 115.811
v -4.182 56.598 114.333
v -9.901 58.083 108.817
v -9.901 65.085 104.779
v -4.182 70.603 106.257
v 1.537 69.118 111.773
v 1.008 47.924 110.847
v 10.812 57.382 113.381
v 10.812 69.386 106.459
v 1.008 71.931 97.003
v -8.796 62.472 94.470
v -8.796 50.469 101.392
f 2 4 5
f 1 4 3
f 2 3 4
f 16 14 15
f 16 17 20
f 18 20 17
f 20 14 16
f 13 14 20
f 13 7 6
f 13 20 7
f 7 20 8
f 21 18 19
f 11 21 10
f 19 10 21
f 20 21 8
f 9 8 21
f 11 12 9 21
f 18 21 20
f 22 29 30
f 22 24 23
f 24 22 30
f 27 28 30
f 26 24 28
f 28 24 30
f 25 27 30
f 33 31 35
f 35 32 34
f 35 34 33
f 44 46 45
f 47 37 36
f 45 37 47
f 48 45 47
f 38 37 46
f 45 46 37
f 39 46 44
f 44 40 39
f 38 46 39
f 44 45 48
f 49 44 48
f 40 49 50
f 41 51 52
f 41 50 51
f 41 40 50
f 43 42 53
f 52 42 41
f 52 53 42
f 44 49 40
f 55 61 62
f 55 60 61
f 55 54 59
f 60 55 59
f 55 62 56
f 58 65 57
f 58 64 65
f 63 64 56
f 58 56 64
f 62 63 56
f 80 78 77 79
f 77 75 74 76
f 74 72 71 73
f 71 66 73
f 69 73 66
f 67 66 71
f 75 67 72
f 71 72 67
f 72 74 75
f 78 67 75
f 74 73 76
f 79 77 76
f 76 69 79
f 69 76 73
f 80 79 69 70
f 68 78 80
f 80 70 68
f 67 78 68
f 75 77 78
f 108 106 105 107
f 105 99 88 89
f 102 104 103 101
f 99 101 100 88
f 89 88 90 92
f 94 92 90
f 87 91 94
f 90 87 94
f 93 92 94 96
f 96 94 91 95
f 100 81 85
f 87 100 85
f 103 81 100
f 100 87 90
f 100 90 88
f 87 85 91
f 104 98 83
f 81 103 83
f 103 104 83
f 102 101 99
f 98 104 102
f 97 98 102 106
f 101 103 100
f 99 106 102
f 85 95 91
f 96 86 84
f 84 93 96
f 93 84 107
f 95 86 96
f 86 95 85
f 89 92 93
f 107 105 89
f 99 105 106
f 82 108 107
f 108 82 97
f 107 89 93
f 106 108 97
f 107 84 82
f 135 121 134
f 121 135 136
f 132 133 121
f 131 132 121
f 133 134 121
f 137 121 136
f 121 128 129
f 129 130 121
f 127 121 126
f 126 121 125
f 128 121 127
f 131 121 130
f 121 137 111
f 113 118 111
f 115 116 113
f 116 117 113
f 110 114 109
f 113 110 115
f 113 114 110
f 121 123 124
f 123 121 122
f 124 125 121
f 111 119 120
f 121 111 120
f 111 118 119
f 118 113 117
f 112 113 111
f 151 148 152 153
f 167 173 160
f 173 148 159
f 148 167 152
f 167 148 173
f 152 167 169 168
f 167 160 162 169
f 164 171 163
f 171 160 161
f 160 164 162
f 164 160 171
f 162 164 166 165
f 163 166 164
f 170 171 161
f 159 172 174 173
f 185 173 174
f 160 185 161
f 173 185 160
f 174 184 186 185
f 185 186 170 161
f 140 175 177 176
f 176 177 159 148
f 144 143 141 142
f 143 190 189 141
f 191 193 192 190
f 158 163 171
f 171 180 158
f 163 157 156
f 158 157 163
f 166 163 156
f 170 181 180
f 183 182 170
f 178 183 186
f 170 180 171
f 183 170 186
f 178 186 184
f 184 172 178
f 181 170 182
f 165 166 155
f 154 165 155
f 168 165 154
f 162 165 169
f 169 165 168
f 166 156 155
f 154 150 153
f 152 168 153
f 150 149 153
f 153 149 151
f 168 154 153
f 174 172 184
f 159 177 172
f 175 172 177
f 175 189 192
f 189 175 140 141
f 175 178 172
f 179 192 193
f 192 178 175
f 187 179 193
f 187 193 191
f 191 188 187
f 189 190 192
f 192 179 178
f 191 190 143
f 176 151 147
f 148 151 176
f 140 176 147
f 147 146 140
f 142 146 145
f 142 140 146
f 149 147 151
f 140 142 141
f 142 139 144
f 188 144 139
f 139 138 188
f 188 143 144
f 188 191 143
f 145 139 142
f 195 194 196
f 199 201 198
f 203 202 205
f 209 208 207
f 211 213 212
f 215 217 214
f 195 196 197
f 201 200 198
f 202 204 205
f 208 206 207
f 211 212 210
f 217 216 214
f 219 221 218
f 223 222 225
f 226 228 229
f 230 232 231
f 235 237 234
f 239 240 238
f 221 220 218
f 222 224 225
f 228 227 229
f 230 231 233
f 237 236 234
f 240 241 238
f 245 244 243
f 249 247 246
f 253 251 252
f 256 257 255
f 261 259 258
f 263 265 262
f 244 242 243
f 249 246 248
f 251 250 252
f 257 254 255
f 261 258 260
f 265 264 262
f 268 267 266
f 270 271 273
f 275 274 277
f 279 278 280
f 282 284 283
f 286 288 289
f 268 266 269
f 270 273 272
f 275 277 276
f 279 280 281
f 284 285 283
f 288 287 289
f 294 291 293
f 295 292 291
f 299 297 298
f 303 301 302
f 307 305 306
f 311 309 308
f 315 313 312
f 320 319 318
f 317 320 318
f 317 316 320
f 321 320 316
f 325 327 326
f 322 327 325
f 324 323 325
f 322 325 323
f 291 290 293
f 295 291 294
f 297 296 298
f 301 300 302
f 305 304 306
f 311 308 310
f 315 312 314
f 332 329 331
f 333 330 329
f 335 332 334
f 336 333 332
f 341 338 340
f 342 339 338
f 344 341 343
f 345 342 341
f 349 347 346
f 353 351 352
f 357 355 354
f 359 357 356
f 363 361 360
f 365 363 362
f 368 370 369
f 367 370 368
f 366 371 367
f 370 367 371
f 376 372 377
f 375 372 376
f 374 373 375
f 372 375 373
f 329 328 331
f 333 329 332
f 332 331 334
f 336 332 335
f 338 337 340
f 342 338 341
f 341 340 343
f 345 341 344
f 349 346 348
f 351 350 352
f 357 354 356
f 359 356 358
f 363 360 362
f 365 362 364
