# OBJ
# COMPAS
# version: 2.15.1
# precision: 3
# V F E: 317 211 475

o Mesh 0
v -86.763 -54.177 47.264
v 27.217 -54.177 16.724
v -75.792 -96.642 88.207
v 38.187 -96.642 57.667
v -75.792 -96.642 88.207
v -86.763 -54.177 47.264
v -56.741 -23.171 159.306
v -67.712 19.294 118.363
v -75.792 -96.642 88.207
v 38.187 -96.642 57.667
v -56.741 -23.171 159.306
v 57.238 -23.171 128.766
v -56.741 -23.171 159.306
v -67.712 19.294 118.363
v 57.238 -23.171 128.766
v 46.267 19.294 87.823
v 27.217 -54.177 16.724
v 38.187 -96.642 57.667
v 46.267 19.294 87.823
v 57.238 -23.171 128.766
v -86.763 -54.177 47.264
v 27.217 -54.177 16.724
v -67.712 19.294 118.363
v 46.267 19.294 87.823
v -82.541 49.801 63.020
v -24.586 49.801 47.491
v -71.192 5.872 105.374
v -13.237 5.872 89.845
v -98.112 -10.247 4.910
v -40.156 -10.247 -10.619
v -86.763 -54.177 47.264
v -28.807 -54.177 31.735
v -98.112 -10.247 4.910
v -71.192 5.872 105.374
v -82.541 49.801 63.020
v -86.763 -54.177 47.264
v -13.237 5.872 89.845
v -86.763 -54.177 47.264
v -28.807 -54.177 31.735
v -71.192 5.872 105.374
v -28.807 -54.177 31.735
v -13.237 5.872 89.845
v -40.156 -10.247 -10.619
v -24.586 49.801 47.491
v -82.541 49.801 63.020
v -98.112 -10.247 4.910
v -40.156 -10.247 -10.619
v -24.586 49.801 47.491
v -98.112 -10.247 4.910
v -40.156 -10.247 -10.619
v -98.107 7.334 4.926
v -40.152 7.334 -10.603
v -87.745 47.297 43.598
v -83.195 47.280 60.580
v -29.789 47.297 28.069
v -25.239 47.280 45.051
v -98.107 7.334 4.926
v -87.745 47.297 43.598
v -40.152 7.334 -10.603
v -29.789 47.297 28.069
v -83.195 47.280 60.580
v -98.112 -10.247 4.910
v -98.107 7.334 4.926
v -87.745 47.297 43.598
v -83.195 47.280 60.580
v -98.112 -10.247 4.910
v -25.239 47.280 45.051
v -40.156 -10.247 -10.619
v -40.156 -10.247 -10.619
v -25.239 47.280 45.051
v -40.152 7.334 -10.603
v -29.789 47.297 28.069
v -11.588 12.230 95.998
v 44.436 12.230 80.986
v 33.941 52.853 41.820
v -22.083 52.853 56.831
v 33.941 52.853 41.820
v -22.083 52.853 56.831
v 30.735 40.490 29.856
v -25.288 40.490 44.867
v 30.735 40.490 29.856
v 33.941 52.853 41.820
v 44.436 12.230 80.986
v 41.230 -0.133 69.022
v 41.230 -0.133 69.022
v 44.436 12.230 80.986
v -14.794 -0.133 84.034
v -11.588 12.230 95.998
v -11.588 12.230 95.998
v -22.083 52.853 56.831
v -14.794 -0.133 84.034
v -25.288 40.490 44.867
v -25.288 40.490 44.867
v 41.230 -0.133 69.022
v -14.794 -0.133 84.034
v 30.735 40.490 29.856
v -64.556 -34.942 130.141
v -65.211 -25.459 127.696
v -65.866 -15.976 125.251
v -76.147 -34.942 133.247
v -76.802 -25.459 130.802
v -77.457 -15.976 128.357
v -65.866 -15.976 125.251
v -70.773 -10.878 106.940
v -77.457 -15.976 128.357
v -82.364 -10.878 110.046
v -70.773 -10.878 106.940
v -74.368 -24.745 93.520
v -82.364 -10.878 110.046
v -85.960 -24.745 96.626
v -74.368 -24.745 93.520
v -73.058 -43.711 98.411
v -85.960 -24.745 96.626
v -84.649 -43.711 101.517
v -73.058 -43.711 98.411
v -68.152 -48.809 116.721
v -84.649 -43.711 101.517
v -79.743 -48.809 119.827
v -68.152 -48.809 116.721
v -64.556 -34.942 130.141
v -79.743 -48.809 119.827
v -76.147 -34.942 133.247
v -76.147 -34.942 133.247
v -77.457 -15.976 128.357
v -82.364 -10.878 110.046
v -85.960 -24.745 96.626
v -84.649 -43.711 101.517
v -79.743 -48.809 119.827
v -65.866 -15.976 125.251
v -64.556 -34.942 130.141
v -68.152 -48.809 116.721
v -73.058 -43.711 98.411
v -74.368 -24.745 93.520
v -70.773 -10.878 106.940
v -71.494 -54.636 104.246
v -71.957 -47.942 102.520
v -72.419 -41.248 100.794
v -76.563 -53.886 102.718
v -76.929 -48.587 101.352
v -77.295 -43.287 99.986
v -81.631 -53.136 101.190
v -81.901 -49.232 100.184
v -82.170 -45.327 99.177
v -72.419 -41.248 100.794
v -74.151 -39.449 94.332
v -75.883 -37.649 87.869
v -77.295 -43.287 99.986
v -78.666 -41.863 94.869
v -80.037 -40.439 89.753
v -82.170 -45.327 99.177
v -83.180 -44.277 95.407
v -84.191 -43.228 91.637
v -75.883 -37.649 87.869
v -78.421 -47.438 78.396
v -84.191 -43.228 91.637
v -85.671 -48.938 86.111
v -78.421 -47.438 78.396
v -77.496 -60.826 81.849
v -85.671 -48.938 86.111
v -85.132 -56.747 88.125
v -77.496 -60.826 81.849
v -74.033 -64.425 94.774
v -81.314 -58.787 84.987
v -78.572 -61.636 95.219
v -85.132 -56.747 88.125
v -83.111 -58.846 95.665
v -74.033 -64.425 94.774
v -71.494 -54.636 104.246
v -78.572 -61.636 95.219
v -76.563 -53.886 102.718
v -83.111 -58.846 95.665
v -81.631 -53.136 101.190
v -81.631 -53.136 101.190
v -82.170 -45.327 99.177
v -84.191 -43.228 91.637
v -85.671 -48.938 86.111
v -85.132 -56.747 88.125
v -83.111 -58.846 95.665
v -72.419 -41.248 100.794
v -71.494 -54.636 104.246
v -74.033 -64.425 94.774
v -77.496 -60.826 81.849
v -78.421 -47.438 78.396
v -75.883 -37.649 87.869
v 34.461 -35.809 14.783
v 30.500 -35.809 0.000
v -28.807 -35.809 31.735
v -32.768 -35.809 16.953
v -1.134 -35.809 8.476
v -28.807 35.809 31.735
v -32.768 35.809 16.953
v 34.461 35.809 14.783
v 30.500 35.809 -0.000
v -16.154 35.809 28.345
v -3.500 35.809 24.954
v 9.154 35.809 21.564
v 21.807 35.809 18.173
v -1.134 35.809 8.476
v -32.768 35.809 16.953
v 30.500 35.809 -0.000
v -32.768 -35.809 16.953
v 30.500 -35.809 0.000
v -1.134 -35.809 8.476
v -1.134 35.809 8.476
v -32.768 0.000 16.953
v -20.225 4.611 63.765
v 43.043 4.611 46.812
v -19.277 0.943 67.301
v 43.991 0.943 50.348
v 11.646 3.694 56.172
v -4.171 3.694 60.411
v 11.528 4.153 55.730
v -4.289 4.153 59.969
v 12.120 1.860 57.941
v 12.238 1.402 58.383
v -3.697 1.860 62.179
v -3.579 1.402 62.621
v 27.937 1.860 53.703
v 28.055 1.402 54.145
v 27.463 3.694 51.934
v 27.345 4.153 51.492
v -28.203 35.495 33.989
v 35.065 35.495 17.036
v -25.368 31.866 44.570
v 37.900 31.866 27.617
v -22.898 24.866 53.789
v 40.370 24.866 36.837
v -21.121 15.286 60.419
v 42.147 15.286 43.467
v -20.225 4.611 63.765
v 43.043 4.611 46.812
v 26.027 35.495 19.458
v 16.988 35.495 21.880
v 7.950 35.495 24.302
v -1.088 35.495 26.724
v -10.127 35.495 29.145
v -19.165 35.495 31.567
v -28.807 35.809 31.735
v -16.154 35.809 28.345
v -3.500 35.809 24.954
v 9.154 35.809 21.564
v 21.807 35.809 18.173
v 34.461 35.809 14.783
v -28.203 35.495 33.989
v 35.065 35.495 17.036
v -19.165 35.495 31.567
v -10.127 35.495 29.145
v -1.088 35.495 26.724
v 7.950 35.495 24.302
v 16.988 35.495 21.880
v 26.027 35.495 19.458
v -28.807 -35.809 31.735
v -19.277 0.943 67.301
v 34.461 -35.809 14.783
v 43.991 0.943 50.348
v 43.559 -0.722 48.737
v 9.974 -8.245 49.933
v 11.166 -3.651 54.379
v 25.791 -8.245 45.695
v 26.983 -3.651 50.141
v 27.578 -1.354 52.364
v 34.891 -3.651 48.022
v 35.487 -1.354 50.245
v -19.709 -0.722 65.689
v -5.843 -8.245 54.171
v -4.652 -3.651 58.617
v -4.056 -1.354 60.840
v -12.560 -3.651 60.736
v -11.964 -1.354 62.959
v -32.768 -35.809 16.953
v -28.807 -35.809 31.735
v -28.807 35.809 31.735
v -32.768 35.809 16.953
v -32.768 0.000 16.953
v -20.225 4.611 63.765
v -21.121 15.286 60.419
v -22.898 24.866 53.789
v -25.368 31.866 44.570
v -28.203 35.495 33.989
v -19.277 0.943 67.301
v -19.709 -0.722 65.689
v 34.461 -35.809 14.783
v 30.500 -35.809 0.000
v 30.500 35.809 -0.000
v 34.461 35.809 14.783
v 43.043 4.611 46.812
v 43.991 0.943 50.348
v 35.065 35.495 17.036
v 37.900 31.866 27.617
v 40.370 24.866 36.837
v 42.147 15.286 43.467
v 43.559 -0.722 48.737
v -35.000 -35.809 -0.000
v -2.250 -35.809 -0.000
v 30.500 -35.809 0.000
v -32.768 -35.809 16.953
v -1.134 -35.809 8.476
v -1.134 35.809 8.476
v -32.768 35.809 16.953
v 30.500 35.809 -0.000
v 30.500 35.809 -0.000
v -2.250 35.809 -0.000
v -35.000 35.809 -0.000
v -1.692 35.809 4.238
v -32.768 35.809 16.953
v -32.768 0.000 16.953
v -32.768 -35.809 16.953
v -35.000 35.809 -0.000
v -35.000 0.000 -0.000
v -35.000 -35.809 -0.000
v -35.000 35.809 -0.000
v 30.500 35.809 -0.000
v -35.000 -35.809 -0.000
v 30.500 -35.809 0.000
v -2.250 -35.809 -0.000
v -2.250 35.809 -0.000
v -35.000 0.000 -0.000
f 2 4 3
f 6 5 7
f 10 12 9
f 16 14 13
f 18 17 20
f 22 21 24
f 2 3 1
f 6 7 8
f 12 11 9
f 16 13 15
f 17 19 20
f 21 23 24
f 26 25 27
f 30 32 31
f 33 36 34
f 37 40 39
f 42 41 44
f 46 45 48
f 26 27 28
f 30 31 29
f 33 34 35
f 40 38 39
f 41 43 44
f 46 48 47
f 52 50 51
f 56 55 54
f 60 59 57
f 63 62 61
f 68 67 65
f 70 69 72
f 50 49 51
f 55 53 54
f 60 57 58
f 63 61 64
f 68 65 66
f 69 71 72
f 75 76 73
f 77 79 78
f 82 83 84
f 86 88 87
f 89 90 91
f 93 96 95
f 75 73 74
f 79 80 78
f 82 84 81
f 86 87 85
f 90 92 91
f 96 94 95
f 101 100 98
f 102 101 98
f 106 105 104
f 110 109 108
f 114 113 111
f 118 117 115
f 122 121 119
f 127 125 126
f 124 125 127
f 124 127 123
f 128 123 127
f 132 133 134
f 129 132 134
f 131 132 130
f 129 130 132
f 100 97 98
f 102 98 99
f 105 103 104
f 109 107 108
f 114 111 112
f 118 115 116
f 122 119 120
f 139 138 136
f 140 139 136
f 142 141 139
f 143 142 139
f 148 147 145
f 149 148 145
f 151 150 148
f 152 151 148
f 156 155 153
f 160 159 158
f 164 163 161
f 166 165 163
f 170 169 167
f 172 171 170
f 175 176 177
f 174 175 177
f 173 174 178
f 177 178 174
f 183 184 179
f 182 183 179
f 181 182 180
f 179 180 182
f 138 135 136
f 140 136 137
f 141 138 139
f 143 139 140
f 147 144 145
f 149 145 146
f 150 147 148
f 152 148 149
f 156 153 154
f 159 157 158
f 164 161 162
f 166 163 164
f 170 167 168
f 171 169 170
f 189 186 185
f 188 189 187
f 185 187 189
f 191 190 194
f 195 198 194
f 191 194 198
f 198 196 197
f 198 197 193
f 192 193 197
f 195 196 198
f 205 199 204
f 200 202 203 204
f 203 201 205
f 205 204 203
f 220 221 212 210
f 210 212 213 211
f 219 218 214 215
f 215 214 216 217
f 212 206 213
f 211 213 206
f 206 208 216 211
f 207 206 212
f 220 207 221
f 212 221 207
f 220 210 214 218
f 220 218 209 207
f 210 211 216 214
f 216 208 217
f 208 215 217
f 218 219 209
f 215 209 219
f 209 215 208
f 224 237 222
f 224 235 236
f 236 237 224
f 225 233 234
f 225 223 232
f 232 233 225
f 234 235 225
f 226 227 225 224
f 230 231 229 228
f 228 229 227 226
f 235 224 225
f 239 238 244 246
f 240 239 247 248
f 241 240 248 249
f 243 242 251 245
f 242 241 249 250
f 239 246 247
f 242 250 251
f 263 261 260 262
f 260 258 257 259
f 267 269 268 266
f 258 266 265 257
f 268 264 265
f 252 265 264
f 266 268 265
f 252 257 265
f 257 252 254
f 269 253 264
f 268 269 264
f 266 258 267
f 253 269 267
f 261 253 267
f 254 256 259
f 260 259 262
f 259 257 254
f 261 258 260
f 255 263 256
f 262 256 263
f 261 263 255
f 256 262 259
f 261 255 253
f 258 261 267
f 275 281 280
f 271 281 275
f 270 271 274
f 275 274 271
f 274 275 276
f 274 277 278
f 274 278 279
f 272 273 274
f 272 274 279
f 276 277 274
f 282 288 289
f 282 285 288
f 284 285 282 283
f 289 290 282
f 292 286 287
f 282 286 292
f 286 282 291
f 291 282 290
f 294 293 296 297
f 295 294 297
f 298 304 300
f 298 299 304
f 301 304 302
f 304 303 302
f 299 303 304
f 306 309 308 305
f 307 310 309 306
f 317 316 311
f 312 316 315 314
f 315 317 313
f 317 315 316
