# OBJ
# COMPAS
# version: 2.13.0
# precision: 3
# V F E: 286 193 430

o Mesh 0
v 160.437 -6.928 44.661
v 156.190 -10.392 48.900
v 151.944 -13.856 53.138
v 161.846 -5.485 49.612
v 158.484 -8.227 52.968
v 155.123 -10.970 56.323
v 163.256 -4.041 54.563
v 160.779 -6.062 57.036
v 158.302 -8.083 59.508
v 151.944 -13.856 53.138
v 147.697 -10.392 57.377
v 143.450 -6.928 61.616
v 155.123 -10.970 56.323
v 151.761 -8.227 59.679
v 148.399 -5.485 63.034
v 158.302 -8.083 59.508
v 155.825 -6.062 61.981
v 153.347 -4.041 64.453
v 143.450 -6.928 61.616
v 143.450 6.928 61.616
v 153.347 -4.041 64.453
v 153.347 4.041 64.453
v 143.450 6.928 61.616
v 151.944 13.856 53.138
v 153.347 4.041 64.453
v 158.302 8.083 59.508
v 151.944 13.856 53.138
v 160.437 6.928 44.661
v 155.123 10.970 56.323
v 161.846 5.485 49.612
v 158.302 8.083 59.508
v 163.256 4.041 54.563
v 160.437 6.928 44.661
v 160.437 -6.928 44.661
v 161.846 5.485 49.612
v 161.846 -5.485 49.612
v 163.256 4.041 54.563
v 163.256 -4.041 54.563
v 163.256 -4.041 54.563
v 158.302 -8.083 59.508
v 153.347 -4.041 64.453
v 153.347 4.041 64.453
v 158.302 8.083 59.508
v 163.256 4.041 54.563
v 151.944 -13.856 53.138
v 160.437 -6.928 44.661
v 160.437 6.928 44.661
v 151.944 13.856 53.138
v 143.450 6.928 61.616
v 143.450 -6.928 61.616
v 163.976 -39.815 41.129
v 157.960 -44.722 47.133
v 151.944 -49.630 53.138
v 172.453 -39.815 49.622
v 166.437 -44.722 55.627
v 160.421 -49.630 61.631
v 151.944 -49.630 53.138
v 139.912 -39.815 65.148
v 160.421 -49.630 61.631
v 148.389 -39.815 73.641
v 139.912 -39.815 65.148
v 139.912 -20.185 65.148
v 148.389 -39.815 73.641
v 148.389 -20.185 73.641
v 139.912 -20.185 65.148
v 151.944 -10.370 53.138
v 148.389 -20.185 73.641
v 160.421 -10.370 61.631
v 151.944 -10.370 53.138
v 163.976 -20.185 41.129
v 160.421 -10.370 61.631
v 172.453 -20.185 49.622
v 163.976 -20.185 41.129
v 163.976 -39.815 41.129
v 172.453 -20.185 49.622
v 172.453 -39.815 49.622
v 172.453 -39.815 49.622
v 160.421 -49.630 61.631
v 148.389 -39.815 73.641
v 148.389 -20.185 73.641
v 160.421 -10.370 61.631
v 172.453 -20.185 49.622
v 151.944 -49.630 53.138
v 163.976 -39.815 41.129
v 163.976 -20.185 41.129
v 151.944 -10.370 53.138
v 139.912 -20.185 65.148
v 139.912 -39.815 65.148
v 88.324 -59.500 31.866
v 47.349 -59.500 -9.184
v 6.726 -59.500 31.364
v 47.700 -59.500 72.414
v 6.726 -59.500 31.364
v 47.700 -59.500 72.414
v 6.726 -42.000 31.364
v 47.700 -42.000 72.414
v 6.726 -42.000 31.364
v 6.726 -59.500 31.364
v 47.349 -59.500 -9.184
v 47.349 -42.000 -9.184
v 47.349 -42.000 -9.184
v 47.349 -59.500 -9.184
v 88.324 -42.000 31.866
v 88.324 -59.500 31.866
v 88.324 -59.500 31.866
v 47.700 -59.500 72.414
v 88.324 -42.000 31.866
v 47.700 -42.000 72.414
v 47.700 -42.000 72.414
v 47.349 -42.000 -9.184
v 88.324 -42.000 31.866
v 6.726 -42.000 31.364
v 86.781 34.500 118.180
v 44.394 34.500 75.715
v 77.983 22.069 126.963
v 35.595 22.069 84.497
v 77.983 -34.500 126.963
v 86.781 -46.931 118.180
v 35.595 -34.500 84.497
v 44.394 -46.931 75.715
v 77.983 22.069 126.963
v 77.983 -34.500 126.963
v 35.595 22.069 84.497
v 35.595 -34.500 84.497
v 86.781 -46.931 118.180
v 86.781 34.500 118.180
v 77.983 22.069 126.963
v 77.983 -34.500 126.963
v 86.781 -46.931 118.180
v 86.781 34.500 118.180
v 44.394 -46.931 75.715
v 44.394 34.500 75.715
v 44.394 34.500 75.715
v 44.394 -46.931 75.715
v 35.595 22.069 84.497
v 35.595 -34.500 84.497
v 86.781 -50.500 118.180
v 44.394 -50.500 75.715
v 130.711 -50.500 74.332
v 88.324 -50.500 31.866
v 86.781 34.500 118.180
v 44.394 34.500 75.715
v 130.711 34.500 74.332
v 88.324 34.500 31.866
v 86.781 34.500 118.180
v 130.711 -50.500 74.332
v 86.781 -50.500 118.180
v 130.711 34.500 74.332
v 88.324 -50.500 31.866
v 130.711 34.500 74.332
v 88.324 34.500 31.866
v 130.711 -50.500 74.332
v 88.324 34.500 31.866
v 88.324 -50.500 31.866
v 44.394 34.500 75.715
v 44.394 -50.500 75.715
v 86.781 -50.500 118.180
v 86.781 34.500 118.180
v 44.394 34.500 75.715
v 44.394 -50.500 75.715
v 130.711 34.500 74.332
v 47.349 34.500 -9.184
v 173.176 34.500 31.945
v 89.815 34.500 -51.571
v 173.176 34.500 31.945
v 130.711 34.500 74.332
v 173.176 -69.500 31.945
v 130.711 -69.500 74.332
v 173.176 34.500 31.945
v 89.815 34.500 -51.571
v 173.176 -69.500 31.945
v 89.815 -69.500 -51.571
v 173.176 -69.500 31.945
v 130.711 -69.500 74.332
v 89.815 -69.500 -51.571
v 47.349 -69.500 -9.184
v 47.349 34.500 -9.184
v 89.815 34.500 -51.571
v 47.349 -69.500 -9.184
v 89.815 -69.500 -51.571
v 130.711 34.500 74.332
v 47.349 34.500 -9.184
v 130.711 -69.500 74.332
v 47.349 -69.500 -9.184
v 44.572 -30.500 75.537
v -30.826 -30.500 -0.000
v 51.866 -35.690 68.256
v 14.167 -35.690 30.488
v 60.145 -37.500 59.993
v 22.446 -37.500 22.224
v 68.376 -35.590 51.777
v 30.677 -35.590 14.008
v 75.455 -30.500 44.711
v 37.756 -30.500 6.943
v 33.017 -35.690 49.372
v 10.311 -33.445 34.337
v 29.160 -33.445 53.222
v 49.527 -35.590 32.893
v 26.642 -36.998 18.036
v 41.296 -37.500 41.108
v 45.491 -36.998 36.920
v 34.416 -33.375 10.276
v 53.266 -33.375 29.160
v 30.826 -30.500 0.000
v -15.746 -30.500 15.107
v -0.667 -30.500 30.215
v 14.413 -30.500 45.322
v 29.492 -30.500 60.430
v 15.819 -35.790 0.000
v -0.000 -37.500 -0.000
v -15.819 -35.790 -0.000
v 38.149 30.500 -0.000
v 79.123 30.500 41.050
v 38.149 -30.500 0.000
v 79.123 -30.500 41.050
v 79.123 28.142 41.050
v 79.123 -28.142 41.050
v 38.149 -28.142 -0.000
v 38.149 28.142 0.000
v 75.455 -30.500 44.711
v 30.826 -30.500 0.000
v 79.123 -30.500 41.050
v 37.756 -30.500 6.943
v 38.149 -30.500 0.000
v 38.427 -21.817 81.671
v 18.046 -21.817 61.253
v -2.334 -21.817 40.836
v -22.714 -21.817 20.418
v -43.094 -21.817 -0.000
v 41.248 -26.519 78.855
v 20.867 -26.519 58.438
v 44.572 -30.500 75.537
v 29.492 -30.500 60.430
v 14.413 -30.500 45.322
v -0.667 -30.500 30.215
v -15.746 -30.500 15.107
v -30.826 -30.500 -0.000
v 31.058 -26.519 68.646
v 19.386 -24.246 59.916
v 29.576 -24.246 70.125
v 22.474 -28.609 56.834
v 32.664 -28.609 67.042
v 0.487 -26.519 38.020
v -19.893 -26.519 17.602
v 38.427 21.817 81.671
v -43.094 21.817 -0.000
v 38.427 -21.817 81.671
v 18.046 -21.817 61.253
v -2.334 -21.817 40.836
v -22.714 -21.817 20.418
v -2.334 21.817 40.836
v -43.094 -21.817 -0.000
v 44.572 30.500 75.537
v 38.427 21.817 81.671
v -2.334 21.817 40.836
v -43.094 21.817 -0.000
v -30.826 30.500 -0.000
v 79.123 30.500 41.050
v 44.572 30.500 75.537
v -30.826 30.500 -0.000
v 38.149 30.500 -0.000
v 75.455 -30.500 44.711
v 68.376 -35.590 51.777
v 60.145 -37.500 59.993
v 51.866 -35.690 68.256
v 44.572 -30.500 75.537
v 38.427 -21.817 81.671
v 38.427 21.817 81.671
v 44.572 30.500 75.537
v 79.123 30.500 41.050
v 79.123 -30.500 41.050
v 41.248 -26.519 78.855
v 79.123 28.142 41.050
v 79.123 -28.142 41.050
v -43.094 21.817 -0.000
v -43.094 -21.817 -0.000
v 38.149 -30.500 0.000
v 38.149 -28.142 -0.000
v 38.149 28.142 0.000
v 38.149 30.500 -0.000
v -30.826 30.500 -0.000
v -30.826 -30.500 -0.000
v -15.819 -35.790 -0.000
v -0.000 -37.500 -0.000
v 15.819 -35.790 0.000
v 30.826 -30.500 0.000
f 5 2 4
f 6 3 2
f 8 5 7
f 9 6 5
f 14 11 13
f 15 12 11
f 17 14 16
f 18 15 14
f 22 20 21
f 26 24 25
f 30 28 27
f 32 30 31
f 36 34 33
f 38 36 35
f 41 43 42
f 40 43 41
f 39 44 40
f 43 40 44
f 49 45 50
f 48 45 49
f 47 46 48
f 45 48 46
f 2 1 4
f 6 2 5
f 5 4 7
f 9 5 8
f 11 10 13
f 15 11 14
f 14 13 16
f 18 14 17
f 20 19 21
f 24 23 25
f 30 27 29
f 30 29 31
f 36 33 35
f 38 35 37
f 55 52 54
f 56 53 55
f 60 58 57
f 64 62 61
f 68 66 67
f 72 70 71
f 76 74 73
f 81 80 79
f 78 81 79
f 78 77 81
f 82 81 77
f 86 88 87
f 83 88 86
f 85 84 86
f 83 86 84
f 52 51 54
f 53 52 55
f 60 57 59
f 64 61 63
f 66 65 67
f 70 69 71
f 76 73 75
f 91 90 89
f 93 94 96
f 98 97 100
f 102 101 103
f 105 107 108
f 109 111 112
f 91 89 92
f 93 96 95
f 98 100 99
f 102 103 104
f 105 108 106
f 111 110 112
f 116 115 114
f 120 118 117
f 124 122 121
f 127 128 125
f 132 130 129
f 134 136 135
f 115 113 114
f 120 117 119
f 124 121 123
f 127 125 126
f 132 129 131
f 134 135 133
f 138 140 139
f 142 141 143
f 145 147 146
f 149 151 150
f 154 156 155
f 158 159 160
f 138 139 137
f 142 143 144
f 145 146 148
f 149 150 152
f 154 155 153
f 158 160 157
f 162 161 163
f 166 168 167
f 170 169 171
f 176 175 173
f 178 180 179
f 182 184 183
f 162 163 164
f 166 167 165
f 170 171 172
f 176 173 174
f 178 179 177
f 182 183 181
f 188 195 197 196
f 192 198 201 199
f 199 201 200 190
f 202 203 198 192
f 197 185 208
f 197 208 207
f 195 187 197
f 185 197 187
f 188 190 200 195
f 196 197 207
f 196 206 205
f 211 205 186
f 211 188 196
f 188 211 210
f 190 188 210
f 205 211 196
f 196 207 206
f 195 200 189 187
f 200 201 189
f 191 189 201
f 203 193 191
f 191 198 203
f 203 194 193
f 201 198 191
f 210 209 199
f 192 199 209
f 190 210 199
f 209 204 202
f 202 204 194
f 194 203 202
f 192 209 202
f 212 213 216 219
f 217 218 219 216
f 218 217 215 214
f 223 224 222 220
f 221 224 223
f 231 238 240 239
f 241 242 238 231
f 240 225 226
f 238 230 240
f 225 240 230
f 242 230 238
f 239 240 226
f 228 244 243 227
f 244 228 229
f 227 243 239
f 243 231 239
f 239 226 227
f 231 243 241
f 233 242 241
f 242 233 232
f 241 234 233
f 232 230 242
f 243 234 241
f 244 236 235 243
f 244 237 236
f 235 234 243
f 229 237 244
f 251 248 247 245
f 246 250 249 251
f 251 249 248
f 246 252 250
f 257 255 254 253
f 257 256 255
f 259 258 261
f 261 260 259
f 272 268 267
f 269 268 272
f 272 266 269
f 265 269 266
f 265 264 269
f 273 269 263
f 262 274 273
f 264 263 269
f 274 262 271
f 263 262 273
f 270 269 273
f 283 282 281
f 284 283 281
f 281 276 275
f 282 276 281
f 281 285 284
f 278 277 286
f 279 286 285
f 286 279 278
f 279 281 280
f 285 281 279
