# OBJ
# COMPAS
# version: 2.15.1
# precision: 3
# V F E: 274 173 398

o Mesh 0
v 95.000 -54.636 74.296
v 95.000 -47.942 72.509
v 95.000 -41.248 70.722
v 99.500 -53.886 71.509
v 99.500 -48.587 70.094
v 99.500 -43.287 68.679
v 104.000 -53.136 68.721
v 104.000 -49.232 67.678
v 104.000 -45.327 66.636
v 95.000 -41.248 70.722
v 95.000 -39.449 64.032
v 95.000 -37.649 57.341
v 99.500 -43.287 68.679
v 99.500 -41.863 63.383
v 99.500 -40.439 58.086
v 104.000 -45.327 66.636
v 104.000 -44.277 62.733
v 104.000 -43.228 58.831
v 95.000 -37.649 57.341
v 95.000 -47.438 47.534
v 104.000 -43.228 58.831
v 104.000 -48.938 53.110
v 95.000 -47.438 47.534
v 95.000 -60.826 51.108
v 104.000 -48.938 53.110
v 104.000 -56.747 55.195
v 95.000 -60.826 51.108
v 95.000 -64.425 64.489
v 99.500 -58.787 53.151
v 99.500 -61.636 63.745
v 104.000 -56.747 55.195
v 104.000 -58.846 63.000
v 95.000 -64.425 64.489
v 95.000 -54.636 74.296
v 99.500 -61.636 63.745
v 99.500 -53.886 71.509
v 104.000 -58.846 63.000
v 104.000 -53.136 68.721
v 104.000 -53.136 68.721
v 104.000 -45.327 66.636
v 104.000 -43.228 58.831
v 104.000 -48.938 53.110
v 104.000 -56.747 55.195
v 104.000 -58.846 63.000
v 95.000 -41.248 70.722
v 95.000 -54.636 74.296
v 95.000 -64.425 64.489
v 95.000 -60.826 51.108
v 95.000 -47.438 47.534
v 95.000 -37.649 57.341
v 95.000 -34.942 101.104
v 95.000 -25.459 98.573
v 95.000 -15.976 96.041
v 107.000 -34.942 101.104
v 107.000 -25.459 98.573
v 107.000 -15.976 96.041
v 95.000 -15.976 96.041
v 95.000 -10.878 77.085
v 107.000 -15.976 96.041
v 107.000 -10.878 77.085
v 95.000 -10.878 77.085
v 95.000 -24.745 63.192
v 107.000 -10.878 77.085
v 107.000 -24.745 63.192
v 95.000 -24.745 63.192
v 95.000 -43.711 68.255
v 107.000 -24.745 63.192
v 107.000 -43.711 68.255
v 95.000 -43.711 68.255
v 95.000 -48.809 87.211
v 107.000 -43.711 68.255
v 107.000 -48.809 87.211
v 95.000 -48.809 87.211
v 95.000 -34.942 101.104
v 107.000 -48.809 87.211
v 107.000 -34.942 101.104
v 107.000 -34.942 101.104
v 107.000 -15.976 96.041
v 107.000 -10.878 77.085
v 107.000 -24.745 63.192
v 107.000 -43.711 68.255
v 107.000 -48.809 87.211
v 95.000 -15.976 96.041
v 95.000 -34.942 101.104
v 95.000 -48.809 87.211
v 95.000 -43.711 68.255
v 95.000 -24.745 63.192
v 95.000 -10.878 77.085
v 35.000 12.230 81.833
v -23.000 12.230 81.833
v -23.000 52.853 41.285
v 35.000 52.853 41.285
v -23.000 52.853 41.285
v 35.000 52.853 41.285
v -23.000 40.490 28.899
v 35.000 40.490 28.899
v -23.000 40.490 28.899
v -23.000 52.853 41.285
v -23.000 12.230 81.833
v -23.000 -0.133 69.448
v -23.000 -0.133 69.448
v -23.000 12.230 81.833
v 35.000 -0.133 69.448
v 35.000 12.230 81.833
v 35.000 12.230 81.833
v 35.000 52.853 41.285
v 35.000 -0.133 69.448
v 35.000 40.490 28.899
v 35.000 40.490 28.899
v -23.000 -0.133 69.448
v 35.000 -0.133 69.448
v -23.000 40.490 28.899
v 95.000 -10.247 -28.544
v 35.000 -10.247 -28.544
v 95.000 7.334 -28.528
v 35.000 7.334 -28.528
v 95.000 47.297 11.509
v 95.000 47.280 29.089
v 35.000 47.297 11.509
v 35.000 47.280 29.089
v 95.000 7.334 -28.528
v 95.000 47.297 11.509
v 35.000 7.334 -28.528
v 35.000 47.297 11.509
v 95.000 47.280 29.089
v 95.000 -10.247 -28.544
v 95.000 7.334 -28.528
v 95.000 47.297 11.509
v 95.000 47.280 29.089
v 95.000 -10.247 -28.544
v 35.000 47.280 29.089
v 35.000 -10.247 -28.544
v 35.000 -10.247 -28.544
v 35.000 47.280 29.089
v 35.000 7.334 -28.528
v 35.000 47.297 11.509
v 95.000 49.801 31.615
v 35.000 49.801 31.615
v 95.000 5.872 75.464
v 35.000 5.872 75.464
v 95.000 -10.247 -28.544
v 35.000 -10.247 -28.544
v 95.000 -54.177 15.304
v 35.000 -54.177 15.304
v 95.000 -10.247 -28.544
v 95.000 5.872 75.464
v 95.000 49.801 31.615
v 95.000 -54.177 15.304
v 35.000 5.872 75.464
v 95.000 -54.177 15.304
v 35.000 -54.177 15.304
v 95.000 5.872 75.464
v 35.000 -54.177 15.304
v 35.000 5.872 75.464
v 35.000 -10.247 -28.544
v 35.000 49.801 31.615
v 95.000 49.801 31.615
v 95.000 -10.247 -28.544
v 35.000 -10.247 -28.544
v 35.000 49.801 31.615
v 95.000 -54.177 15.304
v -23.000 -54.177 15.304
v 95.000 -96.642 57.691
v -23.000 -96.642 57.691
v 95.000 -96.642 57.691
v 95.000 -54.177 15.304
v 95.000 -23.171 131.298
v 95.000 19.294 88.911
v 95.000 -96.642 57.691
v -23.000 -96.642 57.691
v 95.000 -23.171 131.298
v -23.000 -23.171 131.298
v 95.000 -23.171 131.298
v 95.000 19.294 88.911
v -23.000 -23.171 131.298
v -23.000 19.294 88.911
v -23.000 -54.177 15.304
v -23.000 -96.642 57.691
v -23.000 19.294 88.911
v -23.000 -23.171 131.298
v 95.000 -54.177 15.304
v -23.000 -54.177 15.304
v 95.000 19.294 88.911
v -23.000 19.294 88.911
v -30.500 -35.809 15.304
v -30.500 -35.809 0.000
v 35.000 -35.809 15.304
v 35.000 -35.809 -0.000
v 35.000 35.809 15.304
v 35.000 35.809 -0.000
v -30.500 35.809 15.304
v -30.500 35.809 0.000
v 21.900 35.809 15.304
v 8.800 35.809 15.304
v -4.300 35.809 15.304
v -17.400 35.809 15.304
v 35.000 35.809 -0.000
v -30.500 35.809 0.000
v 35.000 -35.809 -0.000
v -30.500 -35.809 0.000
v 35.000 4.611 48.463
v -30.500 4.611 48.463
v 35.000 0.943 52.125
v -30.500 0.943 52.125
v 35.000 35.495 17.637
v -30.500 35.495 17.637
v 35.000 31.866 28.591
v -30.500 31.866 28.591
v 35.000 24.866 38.136
v -30.500 24.866 38.136
v 35.000 15.286 45.000
v -30.500 15.286 45.000
v 35.000 4.611 48.463
v -30.500 4.611 48.463
v -21.143 35.495 17.637
v -11.786 35.495 17.637
v -2.429 35.495 17.637
v 6.929 35.495 17.637
v 16.286 35.495 17.637
v 25.643 35.495 17.637
v 35.000 35.809 15.304
v 21.900 35.809 15.304
v 8.800 35.809 15.304
v -4.300 35.809 15.304
v -17.400 35.809 15.304
v -30.500 35.809 15.304
v 35.000 35.495 17.637
v -30.500 35.495 17.637
v 25.643 35.495 17.637
v 16.286 35.495 17.637
v 6.929 35.495 17.637
v -2.429 35.495 17.637
v -11.786 35.495 17.637
v -21.143 35.495 17.637
v 35.000 -35.809 15.304
v 35.000 0.943 52.125
v -30.500 -35.809 15.304
v -30.500 0.943 52.125
v -30.500 -0.722 50.456
v 2.250 -8.245 42.919
v 2.250 -3.651 47.522
v -14.125 -8.245 42.919
v -14.125 -3.651 47.522
v -14.125 -1.354 49.823
v -22.312 -3.651 47.522
v -22.312 -1.354 49.823
v 35.000 -0.722 50.456
v 18.625 -8.245 42.919
v 18.625 -3.651 47.522
v 18.625 -1.354 49.823
v 26.812 -3.651 47.522
v 26.812 -1.354 49.823
v 35.000 -35.809 -0.000
v 35.000 -35.809 15.304
v 35.000 35.809 15.304
v 35.000 35.809 -0.000
v 35.000 4.611 48.463
v 35.000 15.286 45.000
v 35.000 24.866 38.136
v 35.000 31.866 28.591
v 35.000 35.495 17.637
v 35.000 0.943 52.125
v 35.000 -0.722 50.456
v -30.500 -35.809 15.304
v -30.500 -35.809 0.000
v -30.500 35.809 0.000
v -30.500 35.809 15.304
v -30.500 4.611 48.463
v -30.500 0.943 52.125
v -30.500 35.495 17.637
v -30.500 31.866 28.591
v -30.500 24.866 38.136
v -30.500 15.286 45.000
v -30.500 -0.722 50.456
f 5 2 4
f 6 3 2
f 8 5 7
f 9 6 5
f 14 11 13
f 15 12 11
f 17 14 16
f 18 15 14
f 22 20 21
f 26 24 25
f 30 28 27
f 32 30 29
f 36 34 33
f 38 36 35
f 41 43 42
f 40 43 41
f 39 44 40
f 43 40 44
f 49 45 50
f 48 45 49
f 47 46 48
f 45 48 46
f 2 1 4
f 6 2 5
f 5 4 7
f 9 5 8
f 11 10 13
f 15 11 14
f 14 13 16
f 18 14 17
f 20 19 21
f 24 23 25
f 30 27 29
f 32 29 31
f 36 33 35
f 38 35 37
f 55 52 51
f 56 53 52
f 60 58 57
f 64 62 61
f 68 66 65
f 72 70 69
f 76 74 73
f 81 80 79
f 78 81 79
f 78 77 81
f 82 81 77
f 86 88 87
f 83 88 86
f 85 84 86
f 83 86 84
f 55 51 54
f 56 52 55
f 60 57 59
f 64 61 63
f 68 65 67
f 72 69 71
f 76 73 75
f 91 90 89
f 93 94 95
f 98 97 100
f 102 101 104
f 105 107 106
f 109 111 110
f 91 89 92
f 94 96 95
f 98 100 99
f 101 103 104
f 107 108 106
f 109 110 112
f 116 115 114
f 120 118 117
f 124 122 121
f 127 128 126
f 132 130 129
f 134 136 133
f 115 113 114
f 120 117 119
f 124 121 123
f 128 125 126
f 132 129 131
f 136 135 133
f 138 140 137
f 142 141 143
f 145 147 148
f 149 151 152
f 154 156 153
f 158 159 160
f 140 139 137
f 142 143 144
f 147 146 148
f 151 150 152
f 156 155 153
f 158 160 157
f 162 161 163
f 166 168 167
f 170 169 171
f 176 175 173
f 178 180 177
f 182 184 183
f 162 163 164
f 166 167 165
f 170 171 172
f 176 173 174
f 180 179 177
f 182 183 181
f 186 188 187 185
f 190 193 189
f 195 194 190
f 193 190 194
f 192 196 195
f 196 192 191
f 190 192 195
f 198 197 199 200
f 202 204 203 201
f 207 205 220
f 207 219 218
f 219 207 220
f 208 217 216
f 208 215 206
f 215 208 216
f 217 208 218
f 209 207 208 210
f 213 211 212 214
f 211 209 210 212
f 218 208 207
f 222 229 227 221
f 223 231 230 222
f 224 232 231 223
f 226 228 234 225
f 225 233 232 224
f 222 230 229
f 225 234 233
f 246 245 243 244
f 243 242 240 241
f 250 249 251 252
f 241 240 248 249
f 251 248 247
f 235 247 248
f 249 248 251
f 235 248 240
f 240 237 235
f 252 247 236
f 251 247 252
f 249 250 241
f 236 250 252
f 244 250 236
f 237 242 239
f 243 245 242
f 242 237 240
f 244 243 241
f 238 239 246
f 245 246 239
f 244 238 246
f 239 242 245
f 244 236 238
f 241 250 244
f 257 262 263
f 253 256 255 254
f 263 254 257
f 257 254 258
f 254 260 259
f 254 261 260
f 255 261 254
f 258 254 259
f 264 271 270
f 264 270 267
f 266 265 264 267
f 271 264 272
f 274 269 268
f 264 274 268
f 268 273 264
f 273 272 264
