# OBJ
# COMPAS
# version: 2.13.0
# precision: 3
# V F E: 274 206 432

o Mesh 0
v -21.817 -0.080 43.094
v -27.000 -0.080 43.094
v -27.000 -43.094 -0.000
v -21.817 -43.094 -0.000
v 21.817 -0.080 43.094
v 11.511 -3.753 46.760
v -0.186 -5.034 48.038
v -11.816 -3.682 46.689
v -21.817 -0.080 43.094
v -21.817 -43.094 -0.000
v 21.817 -43.094 -0.000
v 21.817 -21.587 21.547
v -11.907 -50.242 -0.000
v 0.000 -52.984 -0.000
v 11.907 -50.242 -0.000
v 30.500 6.065 36.960
v 21.817 -0.080 43.094
v 21.817 -43.094 -0.000
v 21.817 -21.587 21.547
v 30.500 -30.826 -0.000
v 30.500 -12.380 18.480
v 30.500 36.948 6.134
v 30.500 6.065 36.960
v 30.500 -30.826 -0.000
v 30.500 -12.380 18.480
v 30.500 30.826 0.000
v 30.500 33.887 3.067
v 21.817 43.094 0.000
v 30.500 36.948 6.134
v 30.500 33.887 3.067
v 30.500 30.826 0.000
v 26.635 37.297 0.000
v -27.000 -43.094 -0.000
v -27.000 -0.080 43.094
v -27.000 1.589 41.428
v -27.000 41.425 1.665
v -27.000 10.753 10.773
v -27.000 16.130 16.160
v -27.000 -0.040 21.547
v -27.000 5.337 26.934
v -27.000 8.025 29.627
v -27.000 -0.060 32.320
v -27.000 2.629 35.014
v -27.000 43.094 0.000
v -27.000 39.763 0.000
v -27.000 -39.763 -0.000
v -27.000 -0.080 43.094
v -21.817 -0.080 43.094
v 1.750 19.301 23.749
v 1.750 7.133 35.894
v 1.750 1.050 41.966
v -12.913 7.133 35.894
v -12.913 1.050 41.966
v -11.816 -3.682 46.689
v -0.186 -5.034 48.038
v 11.511 -3.753 46.760
v 21.817 -0.080 43.094
v 30.500 6.065 36.960
v 30.500 36.948 6.134
v 21.817 43.094 0.000
v 1.750 31.468 11.604
v -27.000 43.094 0.000
v -27.000 41.425 1.665
v -27.000 1.589 41.428
v -12.913 31.468 11.604
v 1.750 37.552 5.531
v -12.913 37.552 5.531
v -20.244 37.552 5.531
v -12.913 40.594 2.495
v -20.244 40.594 2.495
v -20.244 1.050 41.966
v -12.913 4.092 38.930
v -20.244 7.133 35.894
v -20.244 4.092 38.930
v 1.750 13.217 29.821
v -12.913 19.301 23.749
v -12.913 13.217 29.821
v -27.000 -43.094 -0.000
v -21.817 -43.094 -0.000
v 21.817 43.094 0.000
v -27.000 43.094 0.000
v -11.907 -50.242 -0.000
v 0.000 -52.984 -0.000
v 11.907 -50.242 -0.000
v 21.817 -43.094 -0.000
v 30.500 -30.826 -0.000
v 30.500 30.826 0.000
v 26.635 37.297 0.000
v -27.000 39.763 0.000
v -27.000 -39.763 -0.000
v -40.000 -20.605 63.581
v -40.000 -61.579 22.531
v 17.397 -61.579 22.531
v 17.397 -20.605 63.581
v 17.397 -61.579 22.531
v 17.397 -20.605 63.581
v 17.397 -49.193 10.168
v 17.397 -8.219 51.218
v 17.397 -49.193 10.168
v 17.397 -61.579 22.531
v -40.000 -61.579 22.531
v -40.000 -49.193 10.168
v -40.000 -49.193 10.168
v -40.000 -61.579 22.531
v -40.000 -8.219 51.218
v -40.000 -20.605 63.581
v -40.000 -20.605 63.581
v 17.397 -20.605 63.581
v -40.000 -8.219 51.218
v 17.397 -8.219 51.218
v 17.397 -8.219 51.218
v -40.000 -49.193 10.168
v -40.000 -8.219 51.218
v 17.397 -49.193 10.168
v -40.000 88.312 39.640
v -40.000 4.950 -43.876
v -100.000 88.312 39.640
v -100.000 4.950 -43.876
v -100.000 88.312 39.640
v -40.000 88.312 39.640
v -100.000 14.705 113.111
v -40.000 14.705 113.111
v -100.000 88.312 39.640
v -100.000 4.950 -43.876
v -100.000 14.705 113.111
v -100.000 -68.657 29.595
v -100.000 14.705 113.111
v -40.000 14.705 113.111
v -100.000 -68.657 29.595
v -40.000 -68.657 29.595
v -40.000 4.950 -43.876
v -100.000 4.950 -43.876
v -40.000 -68.657 29.595
v -100.000 -68.657 29.595
v -40.000 88.312 39.640
v -40.000 4.950 -43.876
v -40.000 14.705 113.111
v -40.000 -68.657 29.595
v 22.069 28.152 99.688
v 22.069 -14.235 57.223
v -40.000 28.152 99.688
v -40.000 -14.235 57.223
v 22.069 88.312 39.640
v 22.069 45.925 -2.826
v -40.000 88.312 39.640
v -40.000 45.925 -2.826
v 22.069 88.312 39.640
v -40.000 28.152 99.688
v 22.069 28.152 99.688
v -40.000 88.312 39.640
v -40.000 -14.235 57.223
v -40.000 88.312 39.640
v -40.000 45.925 -2.826
v -40.000 28.152 99.688
v -40.000 45.925 -2.826
v -40.000 -14.235 57.223
v 22.069 45.925 -2.826
v 22.069 -14.235 57.223
v 22.069 28.152 99.688
v 22.069 88.312 39.640
v 22.069 45.925 -2.826
v 22.069 -14.235 57.223
v 22.069 88.312 39.640
v 22.069 45.925 -2.826
v 34.500 79.513 48.422
v 34.500 37.126 5.956
v 34.500 39.476 88.385
v 22.069 30.678 97.167
v 34.500 -2.911 45.919
v 22.069 -11.709 54.702
v 34.500 79.513 48.422
v 34.500 39.476 88.385
v 34.500 37.126 5.956
v 34.500 -2.911 45.919
v 22.069 30.678 97.167
v 22.069 88.312 39.640
v 34.500 79.513 48.422
v 34.500 39.476 88.385
v 22.069 30.678 97.167
v 22.069 88.312 39.640
v 22.069 -11.709 54.702
v 22.069 45.925 -2.826
v 22.069 45.925 -2.826
v 22.069 -11.709 54.702
v 34.500 37.126 5.956
v 34.500 -2.911 45.919
v -87.000 35.715 92.140
v -78.500 32.241 95.607
v -70.000 28.768 99.074
v -87.000 44.192 100.633
v -78.500 40.719 104.100
v -70.000 37.245 107.567
v -70.000 28.768 99.074
v -53.000 35.715 92.140
v -70.000 37.245 107.567
v -53.000 44.192 100.633
v -53.000 35.715 92.140
v -53.000 49.608 78.272
v -53.000 44.192 100.633
v -53.000 58.085 86.765
v -53.000 49.608 78.272
v -70.000 56.555 71.338
v -53.000 58.085 86.765
v -70.000 65.032 79.832
v -70.000 56.555 71.338
v -87.000 49.608 78.272
v -70.000 65.032 79.832
v -87.000 58.085 86.765
v -87.000 49.608 78.272
v -87.000 35.715 92.140
v -87.000 58.085 86.765
v -87.000 44.192 100.633
v -87.000 44.192 100.633
v -70.000 37.245 107.567
v -53.000 44.192 100.633
v -53.000 58.085 86.765
v -70.000 65.032 79.832
v -87.000 58.085 86.765
v -70.000 28.768 99.074
v -87.000 35.715 92.140
v -87.000 49.608 78.272
v -70.000 56.555 71.338
v -53.000 49.608 78.272
v -53.000 35.715 92.140
v -82.000 58.991 68.907
v -76.000 56.539 71.354
v -70.000 54.087 73.801
v -79.500 63.191 71.072
v -74.750 61.250 73.010
v -70.000 59.309 74.947
v -77.000 67.392 73.237
v -73.500 65.962 74.665
v -70.000 64.531 76.092
v -70.000 54.087 73.801
v -64.000 56.539 71.354
v -58.000 58.991 68.907
v -70.000 59.309 74.947
v -65.250 61.250 73.010
v -60.500 63.191 71.072
v -70.000 64.531 76.092
v -66.500 65.962 74.665
v -63.000 67.392 73.237
v -58.000 58.991 68.907
v -58.000 68.798 59.118
v -63.000 67.392 73.237
v -63.000 73.113 67.527
v -58.000 68.798 59.118
v -70.000 73.701 54.224
v -63.000 73.113 67.527
v -70.000 75.973 64.672
v -70.000 73.701 54.224
v -82.000 68.798 59.118
v -70.000 74.837 59.448
v -79.500 70.955 63.323
v -70.000 75.973 64.672
v -77.000 73.113 67.527
v -82.000 68.798 59.118
v -82.000 58.991 68.907
v -79.500 70.955 63.323
v -79.500 63.191 71.072
v -77.000 73.113 67.527
v -77.000 67.392 73.237
v -77.000 67.392 73.237
v -70.000 64.531 76.092
v -63.000 67.392 73.237
v -63.000 73.113 67.527
v -70.000 75.973 64.672
v -77.000 73.113 67.527
v -70.000 54.087 73.801
v -82.000 58.991 68.907
v -82.000 68.798 59.118
v -70.000 73.701 54.224
v -58.000 68.798 59.118
v -58.000 58.991 68.907
f 4 1 2
f 12 5 6
f 11 12 15
f 6 15 12
f 15 6 14
f 13 7 8
f 10 8 9
f 14 7 13
f 10 13 8
f 6 7 14
f 21 16 17
f 20 21 19
f 23 27 22
f 23 26 27
f 26 23 25
f 26 25 24
f 29 32 28
f 32 29 30
f 32 30 31
f 37 39 38
f 40 42 43
f 43 34 35
f 41 43 35
f 42 34 43
f 46 33 34
f 39 46 42
f 46 34 42
f 41 35 36
f 45 36 44
f 38 36 45
f 42 40 39
f 45 37 38
f 40 41 38
f 46 39 37
f 37 45 46
f 36 38 41
f 65 61 66
f 68 67 69
f 72 53 51
f 50 52 72
f 51 50 72
f 71 53 72
f 74 72 52
f 52 50 75
f 77 75 49
f 66 59 60
f 69 66 60
f 61 59 66
f 59 61 49
f 49 61 65
f 69 67 66
f 69 60 62
f 58 59 49
f 50 57 58
f 49 75 58
f 57 51 56
f 75 50 58
f 57 50 51
f 53 54 51
f 51 54 55
f 56 51 55
f 68 76 65
f 76 73 77
f 70 62 63
f 67 68 65
f 63 68 70
f 68 63 76
f 69 62 70
f 63 73 76
f 77 73 52
f 74 73 64
f 48 71 64
f 74 64 71
f 64 47 48
f 53 71 48
f 64 73 63
f 54 53 48
f 88 87 86
f 80 88 85
f 86 85 88
f 84 80 85
f 84 83 80
f 89 80 82
f 79 90 89
f 83 82 80
f 90 79 78
f 82 79 89
f 81 80 89
f 4 2 3
f 21 17 19
f 20 19 18
f 39 40 38
f 40 43 41
f 65 66 67
f 68 69 70
f 71 72 74
f 74 52 73
f 52 75 77
f 77 49 76
f 49 65 76
f 93 94 91
f 95 97 96
f 100 101 102
f 104 106 103
f 107 108 110
f 111 114 112
f 93 91 92
f 97 98 96
f 100 102 99
f 106 105 103
f 107 110 109
f 111 112 113
f 116 118 117
f 120 119 121
f 124 126 123
f 130 128 127
f 132 131 133
f 136 135 138
f 116 117 115
f 120 121 122
f 126 125 123
f 130 127 129
f 132 133 134
f 135 137 138
f 140 139 141
f 144 146 145
f 147 150 148
f 151 154 153
f 156 155 157
f 160 159 161
f 140 141 142
f 144 145 143
f 147 148 149
f 154 152 153
f 156 157 158
f 159 162 161
f 166 164 163
f 170 169 168
f 174 173 172
f 177 176 175
f 182 181 179
f 184 183 186
f 166 163 165
f 169 167 168
f 173 171 172
f 177 175 178
f 182 179 180
f 183 185 186
f 191 190 188
f 192 191 188
f 196 195 193
f 200 199 197
f 204 203 201
f 208 207 206
f 212 211 210
f 217 215 216
f 214 215 217
f 214 217 213
f 218 213 217
f 222 223 224
f 219 222 224
f 221 222 220
f 219 220 222
f 190 187 188
f 192 188 189
f 196 193 194
f 200 197 198
f 204 201 202
f 207 205 206
f 211 209 210
f 229 228 226
f 230 229 226
f 232 231 229
f 233 232 229
f 238 237 235
f 239 238 235
f 241 240 238
f 242 241 238
f 246 245 244
f 250 249 247
f 254 253 251
f 256 255 254
f 260 259 257
f 262 261 260
f 265 266 267
f 264 265 267
f 263 264 268
f 267 268 264
f 273 274 269
f 272 273 269
f 271 272 270
f 269 270 272
f 228 225 226
f 230 226 227
f 231 228 229
f 233 229 230
f 237 234 235
f 239 235 236
f 240 237 238
f 242 238 239
f 245 243 244
f 250 247 248
f 254 251 252
f 255 253 254
f 260 257 258
f 261 259 260
