# OBJ
# COMPAS
# version: 2.15.1
# precision: 3
# V F E: 270 182 403

o Mesh 0
v -38.404 34.500 95.096
v 44.957 34.500 11.581
v 4.061 34.500 137.483
v 87.423 34.500 53.968
v 4.061 34.500 137.483
v -38.404 34.500 95.096
v 4.061 -69.500 137.483
v -38.404 -69.500 95.096
v 4.061 34.500 137.483
v 87.423 34.500 53.968
v 4.061 -69.500 137.483
v 87.423 -69.500 53.968
v 4.061 -69.500 137.483
v -38.404 -69.500 95.096
v 87.423 -69.500 53.968
v 44.957 -69.500 11.581
v 44.957 34.500 11.581
v 87.423 34.500 53.968
v 44.957 -69.500 11.581
v 87.423 -69.500 53.968
v -38.404 34.500 95.096
v 44.957 34.500 11.581
v -38.404 -69.500 95.096
v 44.957 -69.500 11.581
v -82.334 -50.500 51.248
v -39.947 -50.500 8.782
v -38.404 -50.500 95.096
v 3.983 -50.500 52.631
v -82.334 34.500 51.248
v -39.947 34.500 8.782
v -38.404 34.500 95.096
v 3.983 34.500 52.631
v -82.334 34.500 51.248
v -38.404 -50.500 95.096
v -82.334 -50.500 51.248
v -38.404 34.500 95.096
v 3.983 -50.500 52.631
v -38.404 34.500 95.096
v 3.983 34.500 52.631
v -38.404 -50.500 95.096
v 3.983 34.500 52.631
v 3.983 -50.500 52.631
v -39.947 34.500 8.782
v -39.947 -50.500 8.782
v -82.334 -50.500 51.248
v -82.334 34.500 51.248
v -39.947 34.500 8.782
v -39.947 -50.500 8.782
v -82.334 34.500 51.248
v -39.947 34.500 8.782
v -91.132 22.069 42.466
v -48.745 22.069 0.000
v -91.132 -34.500 42.466
v -82.334 -46.931 51.248
v -48.745 -34.500 0.000
v -39.947 -46.931 8.782
v -91.132 22.069 42.466
v -91.132 -34.500 42.466
v -48.745 22.069 0.000
v -48.745 -34.500 0.000
v -82.334 -46.931 51.248
v -82.334 34.500 51.248
v -91.132 22.069 42.466
v -91.132 -34.500 42.466
v -82.334 -46.931 51.248
v -82.334 34.500 51.248
v -39.947 -46.931 8.782
v -39.947 34.500 8.782
v -39.947 34.500 8.782
v -39.947 -46.931 8.782
v -48.745 22.069 0.000
v -48.745 -34.500 0.000
v 3.983 -59.500 52.631
v 44.957 -59.500 11.581
v 4.334 -59.500 -28.968
v -36.640 -59.500 12.082
v 4.334 -59.500 -28.968
v -36.640 -59.500 12.082
v 4.334 -42.000 -28.968
v -36.640 -42.000 12.082
v 4.334 -42.000 -28.968
v 4.334 -59.500 -28.968
v 44.957 -59.500 11.581
v 44.957 -42.000 11.581
v 44.957 -42.000 11.581
v 44.957 -59.500 11.581
v 3.983 -42.000 52.631
v 3.983 -59.500 52.631
v 3.983 -59.500 52.631
v -36.640 -59.500 12.082
v 3.983 -42.000 52.631
v -36.640 -42.000 12.082
v -36.640 -42.000 12.082
v 44.957 -42.000 11.581
v 3.983 -42.000 52.631
v 4.334 -42.000 -28.968
v -5.140 -39.815 128.300
v -11.156 -44.722 122.295
v -17.171 -49.630 116.290
v -13.617 -39.815 136.793
v -19.633 -44.722 130.788
v -25.649 -49.630 124.783
v -17.171 -49.630 116.290
v -29.203 -39.815 104.280
v -25.649 -49.630 124.783
v -37.681 -39.815 112.773
v -29.203 -39.815 104.280
v -29.203 -20.185 104.280
v -37.681 -39.815 112.773
v -37.681 -20.185 112.773
v -29.203 -20.185 104.280
v -17.171 -10.370 116.290
v -37.681 -20.185 112.773
v -25.649 -10.370 124.783
v -17.171 -10.370 116.290
v -5.140 -20.185 128.300
v -25.649 -10.370 124.783
v -13.617 -20.185 136.793
v -5.140 -20.185 128.300
v -5.140 -39.815 128.300
v -13.617 -20.185 136.793
v -13.617 -39.815 136.793
v -13.617 -39.815 136.793
v -25.649 -49.630 124.783
v -37.681 -39.815 112.773
v -37.681 -20.185 112.773
v -25.649 -10.370 124.783
v -13.617 -20.185 136.793
v -17.171 -49.630 116.290
v -5.140 -39.815 128.300
v -5.140 -20.185 128.300
v -17.171 -10.370 116.290
v -29.203 -20.185 104.280
v -29.203 -39.815 104.280
v -8.678 -6.928 124.767
v -12.925 -10.392 120.529
v -17.171 -13.856 116.290
v -13.627 -5.485 126.186
v -16.989 -8.227 122.830
v -20.351 -10.970 119.475
v -18.575 -4.041 127.605
v -21.052 -6.062 125.132
v -23.530 -8.083 122.660
v -17.171 -13.856 116.290
v -21.418 -10.392 112.051
v -25.665 -6.928 107.812
v -20.351 -10.970 119.475
v -23.712 -8.227 116.119
v -27.074 -5.485 112.764
v -23.530 -8.083 122.660
v -26.007 -6.062 120.187
v -28.484 -4.041 117.715
v -25.665 -6.928 107.812
v -25.665 6.928 107.812
v -28.484 -4.041 117.715
v -28.484 4.041 117.715
v -25.665 6.928 107.812
v -17.171 13.856 116.290
v -28.484 4.041 117.715
v -23.530 8.083 122.660
v -17.171 13.856 116.290
v -8.678 6.928 124.767
v -20.351 10.970 119.475
v -13.627 5.485 126.186
v -23.530 8.083 122.660
v -18.575 4.041 127.605
v -8.678 6.928 124.767
v -8.678 -6.928 124.767
v -13.627 5.485 126.186
v -13.627 -5.485 126.186
v -18.575 4.041 127.605
v -18.575 -4.041 127.605
v -18.575 -4.041 127.605
v -23.530 -8.083 122.660
v -28.484 -4.041 117.715
v -28.484 4.041 117.715
v -23.530 8.083 122.660
v -18.575 4.041 127.605
v -17.171 -13.856 116.290
v -8.678 -6.928 124.767
v -8.678 6.928 124.767
v -17.171 13.856 116.290
v -25.665 6.928 107.812
v -25.665 -6.928 107.812
v -39.769 30.500 8.960
v -32.691 35.590 16.025
v -24.460 37.500 24.241
v -16.180 35.690 32.505
v -8.886 30.500 39.786
v -2.741 21.817 45.919
v -2.741 -21.817 45.919
v -8.886 -30.500 39.786
v -43.437 -30.500 5.298
v -43.437 30.500 5.298
v -5.562 26.519 43.104
v -43.437 -28.142 5.298
v -43.437 28.142 5.298
v -8.886 30.500 39.786
v 30.826 30.500 0.000
v -16.180 35.690 32.505
v -24.460 37.500 24.241
v -32.691 35.590 16.025
v -39.769 30.500 8.960
v -30.826 30.500 0.000
v -15.819 35.790 0.000
v -0.000 37.500 0.000
v 15.819 35.790 0.000
v 17.589 30.500 13.262
v 4.351 30.500 26.524
v -38.149 -30.500 0.000
v -43.437 -30.500 5.298
v -43.437 30.500 5.298
v -42.115 0.000 3.974
v -38.149 30.500 0.000
v -43.437 28.142 5.298
v -43.437 -28.142 5.298
v -42.776 0.000 4.636
v -42.115 15.250 3.974
v -42.776 15.250 4.636
v -43.107 15.250 4.967
v -42.776 22.875 4.636
v -43.107 22.875 4.967
v -42.115 -15.250 3.974
v -42.776 -15.250 4.636
v -43.107 -15.250 4.967
v -42.776 -22.875 4.636
v -43.107 -22.875 4.967
v -39.769 30.500 8.960
v -30.826 30.500 0.000
v -43.437 30.500 5.298
v -38.149 30.500 0.000
v -2.741 21.817 45.919
v 20.176 21.817 22.960
v 43.094 21.817 0.000
v -5.562 26.519 43.104
v 17.355 26.519 20.144
v -8.886 30.500 39.786
v 5.897 26.519 31.624
v 18.837 24.246 21.623
v 7.378 24.246 33.102
v 15.748 28.609 18.540
v 4.290 28.609 30.020
v 30.826 30.500 0.000
v 4.351 30.500 26.524
v 17.589 30.500 13.262
v -2.741 -21.817 45.919
v 43.094 -21.817 0.000
v -2.741 21.817 45.919
v 43.094 21.817 0.000
v 20.176 21.817 22.960
v -8.886 -30.500 39.786
v -2.741 -21.817 45.919
v 43.094 -21.817 0.000
v 30.826 -30.500 0.000
v 10.970 -30.500 19.893
v -43.437 -30.500 5.298
v -8.886 -30.500 39.786
v 30.826 -30.500 0.000
v -38.149 -30.500 0.000
v 10.970 -30.500 19.893
v -30.826 30.500 0.000
v -15.819 35.790 0.000
v -0.000 37.500 0.000
v 15.819 35.790 0.000
v 30.826 30.500 0.000
v -38.149 -30.500 0.000
v -38.149 30.500 0.000
v 43.094 21.817 0.000
v 43.094 -21.817 0.000
v 30.826 -30.500 0.000
f 2 1 3
f 6 8 7
f 10 9 11
f 16 15 13
f 18 20 19
f 22 24 23
f 2 3 4
f 6 7 5
f 10 11 12
f 16 13 14
f 18 19 17
f 22 23 21
f 26 28 27
f 30 29 31
f 33 35 34
f 37 39 38
f 42 44 43
f 46 47 48
f 26 27 25
f 30 31 32
f 33 34 36
f 37 38 40
f 42 43 41
f 46 48 45
f 52 51 50
f 56 54 53
f 60 58 57
f 63 64 61
f 68 66 65
f 70 72 71
f 51 49 50
f 56 53 55
f 60 57 59
f 63 61 62
f 68 65 67
f 70 71 69
f 75 74 76
f 77 78 80
f 82 81 84
f 86 85 87
f 89 91 92
f 93 95 94
f 74 73 76
f 77 80 79
f 82 84 83
f 86 87 88
f 89 92 90
f 93 94 96
f 101 98 97
f 102 99 101
f 106 104 105
f 110 108 107
f 114 112 111
f 118 116 115
f 122 120 119
f 127 126 125
f 124 127 125
f 124 123 127
f 128 127 123
f 132 134 133
f 129 134 132
f 131 130 132
f 129 132 130
f 101 97 100
f 99 98 101
f 104 103 105
f 110 107 109
f 114 111 113
f 118 115 117
f 122 119 121
f 139 136 138
f 140 137 136
f 142 139 141
f 143 140 139
f 148 145 147
f 149 146 145
f 151 148 150
f 152 149 148
f 156 154 155
f 160 158 159
f 164 162 163
f 166 164 165
f 170 168 167
f 172 170 169
f 175 177 176
f 174 177 175
f 173 178 174
f 177 174 178
f 183 179 184
f 182 179 183
f 181 180 182
f 179 182 180
f 136 135 138
f 140 136 139
f 139 138 141
f 143 139 142
f 145 144 147
f 149 145 148
f 148 147 150
f 152 148 151
f 154 153 155
f 158 157 159
f 162 161 163
f 164 163 165
f 170 167 169
f 172 169 171
f 195 191 190
f 192 191 195
f 195 189 192
f 188 192 189
f 188 187 192
f 196 192 186
f 185 197 196
f 187 186 192
f 197 185 194
f 186 185 196
f 193 192 196
f 209 200 198
f 207 200 209
f 199 207 208
f 209 208 207
f 207 206 200
f 205 202 201
f 204 203 202
f 201 206 205
f 202 205 204
f 200 206 201
f 222 221 219 220
f 219 218 213 217
f 225 224 226 227
f 217 213 223 224
f 211 226 210
f 223 210 226
f 224 223 226
f 210 223 213
f 213 214 210
f 227 211 216
f 224 225 217
f 216 225 227
f 227 226 211
f 215 220 225 216
f 214 218 221
f 219 221 218
f 218 214 213
f 220 219 217
f 215 212 222
f 221 222 212
f 220 215 222
f 212 214 221
f 217 225 220
f 229 231 230 228
f 236 238 240 239
f 241 242 238 236
f 240 235 232
f 238 235 240
f 233 240 232
f 239 233 234
f 236 239 234
f 240 233 239
f 238 242 235
f 244 237 242
f 241 245 244 242
f 243 241 236
f 241 243 245
f 234 243 236
f 237 235 242
f 247 250 248 246
f 247 249 250
f 252 251 255
f 254 253 255
f 252 255 253
f 257 256 259
f 259 260 257
f 259 258 260
f 262 270 266
f 269 270 268
f 270 265 268
f 267 261 266
f 270 262 263
f 265 270 264
f 264 270 263
f 262 266 261
