# Rhino

v -74.75 -8.227253 64.5
v -79.5 -5.4848366 64.5
v -76 -10.392319 60
v -70 -10.969666 64.5
v -74.75 -8.227253 64.5
v -76 -10.392319 60
v -73.5 -6.0621872 69
v -77 -4.0414619 69
v -74.75 -8.227253 64.5
v -70 -8.0829124 69
v -73.5 -6.0621872 69
v -74.75 -8.227253 64.5
v -65.25 -8.227253 64.5
v -70 -10.969666 64.5
v -64 -10.392319 60
v -60.5 -5.4848366 64.5
v -65.25 -8.227253 64.5
v -64 -10.392319 60
v -66.5 -6.0621872 69
v -70 -8.0829124 69
v -65.25 -8.227253 64.5
v -63 -4.0414619 69
v -66.5 -6.0621872 69
v -65.25 -8.227253 64.5
v -63 4.0414429 69
v -63 -4.0414619 69
v -58 6.9281921 60
v -70 8.0828934 69
v -63 4.0414429 69
v -70 13.856396 60
v -79.5 5.4848175 64.5
v -70 10.969646 64.5
v -70 13.856396 60
v -77 4.0414429 69
v -70 8.0828934 69
v -70 10.969646 64.5
v -79.5 -5.4848366 64.5
v -79.5 5.4848175 64.5
v -82 6.9281921 60
v -77 -4.0414619 69
v -77 4.0414429 69
v -79.5 5.4848175 64.5
v -63 -4.0414619 69
v -63 4.0414429 69
v -70 8.0828934 69
v -70 -8.0829124 69
v -63 -4.0414619 69
v -70 8.0828934 69
v -77 -4.0414619 69
v -70 -8.0829124 69
v -77 4.0414429 69
v -70 8.0828934 69
v -77 4.0414429 69
v -70 -8.0829124 69
v -58 6.9281921 60
v -58 -6.928215 60
v -70 -13.856415 60
v -70 13.856396 60
v -58 6.9281921 60
v -70 -13.856415 60
v -82 6.9281921 60
v -70 13.856396 60
v -82 -6.928215 60
v -70 -13.856415 60
v -82 -6.928215 60
v -70 13.856396 60
v -78.5 -44.722443 72
v -87 -39.814964 72
v -87 -39.814964 60
v -70 -49.629921 72
v -78.5 -44.722443 72
v -78.5 -44.722443 60
v -53 -39.814964 72
v -70 -49.629921 72
v -70 -49.629921 60
v -53 -20.185059 72
v -53 -39.814964 72
v -53 -39.814964 60
v -70 -10.370102 72
v -53 -20.185059 72
v -53 -20.185059 60
v -87 -20.185059 72
v -70 -10.370102 72
v -70 -10.370102 60
v -87 -39.814964 72
v -87 -20.185059 72
v -87 -20.185059 60
v -70 -10.370102 72
v -53 -39.814964 72
v -53 -20.185059 72
v -70 -49.629921 72
v -53 -39.814964 72
v -70 -10.370102 72
v -70 -49.629921 72
v -70 -10.370102 72
v -87 -39.814964 72
v -87 -20.185059 72
v -87 -39.814964 72
v -70 -10.370102 72
v -70 -10.370102 60
v -53 -20.185059 60
v -53 -39.814964 60
v -70 -49.629921 60
v -70 -10.370102 60
v -53 -39.814964 60
v -87 -20.185059 60
v -70 -10.370102 60
v -87 -39.814964 60
v -70 -49.629921 60
v -87 -39.814964 60
v -70 -10.370102 60
v 17.396969 -59.5 -58
v 17.396969 -59.5 0
v -40 -59.5 0
v 17.396969 -59.5 -58
v 17.396969 -42 -58
v 17.396969 -42 0
v 17.396969 -59.5 -58
v -40 -59.5 -58
v -40 -42 -58
v -40 -59.5 -58
v -40 -59.5 0
v -40 -42 0
v -40 -59.5 0
v 17.396969 -59.5 0
v 17.396969 -42 0
v 17.396969 -42 0
v 17.396969 -42 -58
v -40 -42 -58
v 34.5 22.068542 0
v 22.068542 34.5 0
v 22.068542 34.5 60
v 22.068542 -46.931458 0
v 34.5 -34.5 0
v 34.5 -34.5 60
v 34.5 -34.5 0
v 34.5 22.068542 0
v 34.5 22.068542 60
v 34.5 22.068542 60
v 22.068542 34.5 60
v 22.068542 -46.931458 60
v 22.068542 34.5 0
v 22.068542 -46.931458 0
v 22.068542 -46.931458 60
v 22.068542 -46.931458 0
v 22.068542 34.5 0
v 34.5 22.068542 0
v 22.068542 -50.5 0
v 22.068542 -50.5 60
v -40 -50.5 60
v 22.068542 34.5 0
v -40 34.5 0
v -40 34.5 60
v 22.068542 34.5 60
v -40 34.5 60
v -40 -50.5 60
v -40 -50.5 0
v -40 -50.5 60
v -40 34.5 60
v -40 -50.5 0
v -40 34.5 0
v 22.068542 34.5 0
v 22.068542 34.5 60
v 22.068542 -50.5 60
v 22.068542 -50.5 0
v -40 34.5 -58
v -100 34.5 -58
v -100 34.5 60
v -40 34.5 60
v -100 34.5 60
v -100 -69.5 60
v -100 34.5 -58
v -100 -69.5 -58
v -100 -69.5 60
v -40 -69.5 -58
v -40 -69.5 60
v -100 -69.5 60
v -100 34.5 -58
v -40 34.5 -58
v -40 -69.5 -58
v -40 34.5 -58
v -40 34.5 60
v -40 -69.5 60
v -79.5 -5.4848366 64.5
v -82 -6.928215 60
v -76 -10.392319 60
v -70 -10.969666 64.5
v -76 -10.392319 60
v -70 -13.856415 60
v -77 -4.0414619 69
v -79.5 -5.4848366 64.5
v -74.75 -8.227253 64.5
v -70 -8.0829124 69
v -74.75 -8.227253 64.5
v -70 -10.969666 64.5
v -70 -10.969666 64.5
v -70 -13.856415 60
v -64 -10.392319 60
v -60.5 -5.4848366 64.5
v -64 -10.392319 60
v -58 -6.928215 60
v -70 -8.0829124 69
v -70 -10.969666 64.5
v -65.25 -8.227253 64.5
v -63 -4.0414619 69
v -65.25 -8.227253 64.5
v -60.5 -5.4848366 64.5
v -63 -4.0414619 69
v -58 -6.928215 60
v -58 6.9281921 60
v -63 4.0414429 69
v -58 6.9281921 60
v -70 13.856396 60
v -79.5 5.4848175 64.5
v -70 13.856396 60
v -82 6.9281921 60
v -77 4.0414429 69
v -70 10.969646 64.5
v -79.5 5.4848175 64.5
v -79.5 -5.4848366 64.5
v -82 6.9281921 60
v -82 -6.928215 60
v -77 -4.0414619 69
v -79.5 5.4848175 64.5
v -79.5 -5.4848366 64.5
v -78.5 -44.722443 72
v -87 -39.814964 60
v -78.5 -44.722443 60
v -70 -49.629921 72
v -78.5 -44.722443 60
v -70 -49.629921 60
v -53 -39.814964 72
v -70 -49.629921 60
v -53 -39.814964 60
v -53 -20.185059 72
v -53 -39.814964 60
v -53 -20.185059 60
v -70 -10.370102 72
v -53 -20.185059 60
v -70 -10.370102 60
v -87 -20.185059 72
v -70 -10.370102 60
v -87 -20.185059 60
v -87 -39.814964 72
v -87 -20.185059 60
v -87 -39.814964 60
v 17.396969 -59.5 -58
v -40 -59.5 0
v -40 -59.5 -58
v 17.396969 -59.5 -58
v 17.396969 -42 0
v 17.396969 -59.5 0
v 17.396969 -59.5 -58
v -40 -42 -58
v 17.396969 -42 -58
v -40 -59.5 -58
v -40 -42 0
v -40 -42 -58
v -40 -59.5 0
v 17.396969 -42 0
v -40 -42 0
v 17.396969 -42 0
v -40 -42 -58
v -40 -42 0
v 34.5 22.068542 0
v 22.068542 34.5 60
v 34.5 22.068542 60
v 22.068542 -46.931458 0
v 34.5 -34.5 60
v 22.068542 -46.931458 60
v 34.5 -34.5 0
v 34.5 22.068542 60
v 34.5 -34.5 60
v 34.5 22.068542 60
v 22.068542 -46.931458 60
v 34.5 -34.5 60
v 22.068542 34.5 0
v 22.068542 -46.931458 60
v 22.068542 34.5 60
v 22.068542 -46.931458 0
v 34.5 22.068542 0
v 34.5 -34.5 0
v 22.068542 -50.5 0
v -40 -50.5 60
v -40 -50.5 0
v 22.068542 34.5 0
v -40 34.5 60
v 22.068542 34.5 60
v 22.068542 34.5 60
v -40 -50.5 60
v 22.068542 -50.5 60
v -40 -50.5 0
v -40 34.5 60
v -40 34.5 0
v -40 -50.5 0
v 22.068542 34.5 0
v 22.068542 -50.5 0
v 22.068542 34.5 60
v 22.068542 -50.5 0
v 22.068542 34.5 0
v -40 34.5 -58
v -100 34.5 60
v -40 34.5 60
v -40 34.5 60
v -100 -69.5 60
v -40 -69.5 60
v -100 34.5 -58
v -100 -69.5 60
v -100 34.5 60
v -40 -69.5 -58
v -100 -69.5 60
v -100 -69.5 -58
v -100 34.5 -58
v -40 -69.5 -58
v -100 -69.5 -58
v -40 34.5 -58
v -40 -69.5 60
v -40 -69.5 -58
f 1 2 3
f 4 5 6
f 7 8 9
f 10 11 12
f 13 14 15
f 16 17 18
f 19 20 21
f 22 23 24
f 25 26 27
f 28 29 30
f 31 32 33
f 34 35 36
f 37 38 39
f 40 41 42
f 43 44 45
f 46 47 48
f 49 50 51
f 52 53 54
f 55 56 57
f 58 59 60
f 61 62 63
f 64 65 66
f 67 68 69
f 70 71 72
f 73 74 75
f 76 77 78
f 79 80 81
f 82 83 84
f 85 86 87
f 88 89 90
f 91 92 93
f 94 95 96
f 97 98 99
f 100 101 102
f 103 104 105
f 106 107 108
f 109 110 111
f 112 113 114
f 115 116 117
f 118 119 120
f 121 122 123
f 124 125 126
f 127 128 129
f 130 131 132
f 133 134 135
f 136 137 138
f 139 140 141
f 142 143 144
f 145 146 147
f 148 149 150
f 151 152 153
f 154 155 156
f 157 158 159
f 160 161 162
f 163 164 165
f 166 167 168
f 169 170 171
f 172 173 174
f 175 176 177
f 178 179 180
f 181 182 183
f 184 185 186
f 187 188 189
f 190 191 192
f 193 194 195
f 196 197 198
f 199 200 201
f 202 203 204
f 205 206 207
f 208 209 210
f 211 212 213
f 214 215 216
f 217 218 219
f 220 221 222
f 223 224 225
f 226 227 228
f 229 230 231
f 232 233 234
f 235 236 237
f 238 239 240
f 241 242 243
f 244 245 246
f 247 248 249
f 250 251 252
f 253 254 255
f 256 257 258
f 259 260 261
f 262 263 264
f 265 266 267
f 268 269 270
f 271 272 273
f 274 275 276
f 277 278 279
f 280 281 282
f 283 284 285
f 286 287 288
f 289 290 291
f 292 293 294
f 295 296 297
f 298 299 300
f 301 302 303
f 304 305 306
f 307 308 309
f 310 311 312
f 313 314 315
f 316 317 318
