# OBJ
# COMPAS
# version: 2.15.1
# precision: 3
# V F E: 84 44 108

o Mesh 0
v -25.000 165.550 40.000
v -25.000 148.550 40.000
v 25.000 148.550 40.000
v 25.000 165.550 40.000
v -25.000 148.550 40.000
v -25.000 63.550 5.000
v 25.000 63.550 5.000
v 25.000 148.550 40.000
v -25.000 63.550 5.000
v -25.000 63.550 -15.000
v 25.000 63.550 -15.000
v 25.000 63.550 5.000
v -25.000 63.550 -15.000
v -25.000 148.550 -40.000
v 25.000 148.550 -40.000
v 25.000 63.550 -15.000
v -25.000 148.550 -40.000
v -25.000 165.550 -40.000
v 25.000 165.550 -40.000
v 25.000 148.550 -40.000
v -25.000 165.550 -40.000
v -25.000 165.550 40.000
v 25.000 165.550 40.000
v 25.000 165.550 -40.000
v -25.000 148.550 -40.000
v -25.000 165.550 40.000
v -25.000 165.550 -40.000
v -25.000 148.550 40.000
v -25.000 63.550 -15.000
v -25.000 63.550 5.000
v 25.000 148.550 -40.000
v 25.000 165.550 -40.000
v 25.000 165.550 40.000
v 25.000 148.550 40.000
v 25.000 63.550 5.000
v 25.000 63.550 -15.000
v -25.000 17.000 16.000
v 25.000 17.000 16.000
v 25.000 17.000 -20.000
v -25.000 17.000 -20.000
v -25.000 -17.000 16.000
v -25.000 17.000 16.000
v -25.000 17.000 -20.000
v -25.000 -17.000 -20.000
v 25.000 -17.000 16.000
v -25.000 -17.000 16.000
v -25.000 -17.000 -20.000
v 25.000 -17.000 -20.000
v 25.000 17.000 16.000
v 25.000 -17.000 16.000
v 25.000 -17.000 -20.000
v 25.000 17.000 -20.000
v -25.000 -17.000 -20.000
v -25.000 17.000 -20.000
v 25.000 17.000 -20.000
v 25.000 -17.000 -20.000
v -25.000 -17.000 16.000
v 25.000 -17.000 16.000
v 25.000 17.000 16.000
v -25.000 17.000 16.000
v 25.000 17.000 16.000
v -25.000 17.000 16.000
v -25.000 17.000 1.000
v 25.000 17.000 1.000
v -25.000 17.000 16.000
v -25.000 95.000 16.000
v -25.000 95.000 1.000
v -25.000 17.000 1.000
v -25.000 95.000 16.000
v 25.000 95.000 16.000
v 25.000 95.000 1.000
v -25.000 95.000 1.000
v 25.000 95.000 16.000
v 25.000 17.000 16.000
v 25.000 17.000 1.000
v 25.000 95.000 1.000
v -25.000 17.000 16.000
v 25.000 17.000 16.000
v 25.000 95.000 16.000
v -25.000 95.000 16.000
v -25.000 17.000 1.000
v 25.000 95.000 1.000
v 25.000 17.000 1.000
v -25.000 95.000 1.000
f 1 2 3
f 1 3 4
f 5 6 7
f 5 7 8
f 9 10 11
f 9 11 12
f 13 14 15
f 13 15 16
f 17 18 19
f 17 19 20
f 21 22 23
f 21 23 24
f 25 26 27
f 28 26 25
f 25 29 30
f 28 25 30
f 31 32 33
f 34 31 33
f 31 35 36
f 34 35 31
f 37 38 39
f 37 39 40
f 41 42 43
f 41 43 44
f 45 46 47
f 45 47 48
f 49 50 51
f 49 51 52
f 53 54 55
f 53 55 56
f 57 58 59
f 57 59 60
f 61 62 63
f 61 63 64
f 65 66 67
f 65 67 68
f 69 70 71
f 69 71 72
f 73 74 75
f 73 75 76
f 77 78 79
f 79 80 77
f 81 82 83
f 82 81 84
