# OBJ
# COMPAS
# version: 2.15.1
# precision: 3
# V F E: 72 27 85

o Mesh 0
v -20.150 -31.300 16.000
v -20.150 -31.300 9.000
v -20.150 -17.000 16.000
v -20.150 -17.000 9.000
v 0.150 -17.000 16.000
v 0.150 -17.000 9.000
v 0.150 -31.300 16.000
v 0.150 -31.300 9.000
v 0.150 -31.300 16.000
v 0.150 -31.300 9.000
v -20.150 -31.300 16.000
v -20.150 -31.300 9.000
v 0.150 -31.300 9.000
v 0.150 -17.000 9.000
v -20.150 -31.300 9.000
v -20.150 -17.000 9.000
v -20.150 31.300 16.000
v -20.150 31.300 9.000
v 0.150 31.300 16.000
v 0.150 31.300 9.000
v 0.150 31.300 16.000
v 0.150 31.300 9.000
v 0.150 17.000 16.000
v 0.150 17.000 9.000
v -20.150 17.000 16.000
v -20.150 17.000 9.000
v -20.150 31.300 16.000
v -20.150 31.300 9.000
v -20.150 31.300 9.000
v -20.150 17.000 9.000
v 0.150 31.300 9.000
v 0.150 17.000 9.000
v -40.000 -17.000 16.000
v -40.000 -17.000 -20.000
v -40.000 17.000 16.000
v -40.000 17.000 -20.000
v 20.000 17.000 16.000
v 20.000 17.000 -20.000
v 20.000 -17.000 16.000
v 20.000 -17.000 -20.000
v -40.000 -17.000 -20.000
v 20.000 -17.000 -20.000
v -40.000 17.000 -20.000
v 20.000 17.000 -20.000
v -40.000 17.000 16.000
v -40.000 17.000 -20.000
v 20.000 17.000 16.000
v 20.000 17.000 -20.000
v 0.150 17.000 9.000
v 0.150 17.000 16.000
v -20.150 17.000 16.000
v -20.150 17.000 9.000
v 20.000 -17.000 16.000
v 20.000 -17.000 -20.000
v -40.000 -17.000 16.000
v -40.000 -17.000 -20.000
v -20.150 -17.000 9.000
v -20.150 -17.000 16.000
v 0.150 -17.000 16.000
v 0.150 -17.000 9.000
v -20.150 -31.300 16.000
v -20.150 -17.000 16.000
v 0.150 -17.000 16.000
v 0.150 -31.300 16.000
v -20.150 31.300 16.000
v 0.150 31.300 16.000
v 0.150 17.000 16.000
v -20.150 17.000 16.000
v -40.000 -17.000 16.000
v -40.000 17.000 16.000
v 20.000 17.000 16.000
v 20.000 -17.000 16.000
f 2 1 3 4
f 6 5 7 8
f 10 9 11 12
f 14 13 15 16
f 18 17 19 20
f 22 21 23 24
f 26 25 27 28
f 30 29 31 32
f 34 33 35 36
f 38 37 39 40
f 42 41 43 44
f 52 45 51
f 48 46 52 49
f 45 52 46
f 49 50 47
f 47 48 49
f 60 53 59
f 57 54 60
f 53 60 54
f 57 58 55
f 54 57 56
f 55 56 57
f 68 67 66 65
f 68 70 69 62
f 61 64 63 62
f 62 63 67 68
f 71 67 63 72
